<svg width="561" height="561" viewBox="0 0 561 561" fill="none" xmlns="http://www.w3.org/2000/svg">
<mask id="mask0_31_8087" style="mask-type:luminance" maskUnits="userSpaceOnUse" x="180" y="132" width="97" height="96">
<path d="M180.681 132.004H276.526V227.887H180.681V132.004Z" fill="white"/>
</mask>
<g mask="url(#mask0_31_8087)">
<path d="M223.6 132.27C233.03 131.277 242.542 133.102 250.935 137.515C259.327 141.928 266.222 148.731 270.748 157.063C275.274 165.396 277.227 174.883 276.36 184.325C275.494 193.767 271.847 202.741 265.88 210.11C259.913 217.479 251.895 222.914 242.84 225.726C233.785 228.538 224.099 228.601 215.007 225.908C205.916 223.215 197.827 217.886 191.764 210.596C185.702 203.305 181.937 194.38 180.947 184.95C180.288 178.69 180.868 172.362 182.655 166.327C184.442 160.291 187.401 154.667 191.361 149.775C195.322 144.883 200.208 140.819 205.74 137.816C211.271 134.812 217.34 132.928 223.6 132.27Z" fill="#E1E6ED"/>
</g>
<path d="M224.551 141.327C232.189 140.523 239.893 142.001 246.691 145.576C253.488 149.151 259.073 154.661 262.739 161.41C266.405 168.158 267.987 175.843 267.285 183.491C266.583 191.139 263.629 198.407 258.796 204.376C253.963 210.345 247.469 214.747 240.134 217.024C232.8 219.302 224.955 219.354 217.591 217.173C210.227 214.992 203.675 210.676 198.764 204.771C193.853 198.866 190.804 191.637 190.002 183.999C189.468 178.929 189.938 173.803 191.385 168.914C192.832 164.025 195.228 159.469 198.437 155.506C201.645 151.544 205.603 148.252 210.083 145.819C214.564 143.386 219.48 141.86 224.551 141.327Z" fill="#F0F3FA"/>
<path d="M198.338 183.124L228.603 179.945" stroke="#E1E6ED" stroke-width="5.048" stroke-miterlimit="10"/>
<path d="M228.603 179.945L211.279 149.938" stroke="#E1E6ED" stroke-width="2.019" stroke-miterlimit="10"/>
<path d="M227.793 172.221C229.321 172.06 230.862 172.356 232.222 173.071C233.581 173.786 234.698 174.888 235.431 176.238C236.165 177.588 236.481 179.125 236.341 180.654C236.2 182.184 235.609 183.638 234.643 184.831C233.676 186.025 232.377 186.906 230.91 187.361C229.443 187.817 227.874 187.827 226.401 187.391C224.928 186.954 223.618 186.091 222.636 184.91C221.654 183.729 221.044 182.283 220.883 180.755C220.777 179.741 220.871 178.716 221.16 177.738C221.45 176.761 221.929 175.849 222.571 175.057C223.212 174.264 224.004 173.606 224.9 173.12C225.796 172.633 226.779 172.328 227.793 172.221Z" fill="white"/>
<path opacity="0.674" d="M457.347 466.682C457.347 474.64 384.57 481.091 294.795 481.091C205.02 481.091 132.247 474.64 132.247 466.682C132.247 458.724 205.024 452.273 294.799 452.273C384.574 452.273 457.347 458.724 457.347 466.682Z" fill="#DDE2E9"/>
<path d="M349.532 416.866H240.067C240.067 416.854 240.074 416.736 240.087 416.518C240.358 412.018 240.926 402.754 241.678 391.284C223.728 387.403 209.407 383.057 199.112 378.368C192.701 375.452 187.864 372.38 184.735 369.252C183.181 367.767 181.937 365.988 181.077 364.018C180.327 362.223 180.112 360.249 180.46 358.334C181.56 352.272 185.16 343.964 191.16 333.634C195.96 325.374 202.292 315.812 209.986 305.215C223.09 287.174 235.762 272.185 235.888 272.036L238.834 275.697C237.944 274.396 236.982 273.146 235.952 271.952H353.652C352.621 273.145 351.658 274.395 350.769 275.697L353.709 272.036L353.733 272.063C355.068 273.647 367.133 288.037 379.609 305.22C387.303 315.82 393.638 325.379 398.436 333.639C404.436 343.964 408.036 352.273 409.136 358.339C409.484 360.254 409.27 362.228 408.519 364.023C407.659 365.992 406.415 367.771 404.861 369.255C401.732 372.384 396.894 375.455 390.484 378.372C380.184 383.062 365.867 387.408 347.919 391.288C348.859 405.626 349.503 416.412 349.53 416.864V416.869L349.532 416.866ZM248.372 310.852L219.835 352.195L243.852 359.876C245.639 335.608 247.135 319.323 248.295 311.475C248.313 311.356 248.326 311.236 248.339 311.12C248.349 311.031 248.358 310.944 248.37 310.857L248.372 310.852ZM341.225 310.852C341.236 310.933 341.246 311.014 341.255 311.095C341.269 311.22 341.283 311.345 341.302 311.469C342.466 319.336 343.961 335.621 345.746 359.869L369.764 352.188L341.225 310.852Z" fill="#0D71BA"/>
<path d="M273.176 170.465C273.176 170.465 272.989 156.679 296.035 154.208C319.081 151.737 333.895 169.853 338.014 207.728C342.133 245.603 359.414 251.367 359.414 251.367C359.414 251.367 334.714 271.128 297.681 271.128C260.648 271.128 231.014 253.014 231.014 253.014C231.014 253.014 247.475 243.133 246.652 225.842C245.829 208.551 247.026 160.373 273.176 170.465Z" fill="#2E3A5B"/>
<path d="M353.653 271.953L312.496 266.189L307.558 238.194H282.044L277.105 266.189L235.953 271.953C258.315 294.325 290.793 293.568 294.801 293.383C298.809 293.567 331.286 294.325 353.649 271.953" fill="#F4C5BE"/>
<mask id="mask1_31_8087" style="mask-type:luminance" maskUnits="userSpaceOnUse" x="235" y="238" width="119" height="56">
<path d="M295.21 238.193H282.042L277.103 266.188L235.951 271.952C258.313 294.323 290.79 293.567 294.798 293.382C298.807 293.566 331.284 294.323 353.647 271.952L312.493 266.188L307.556 238.193H295.21Z" fill="white"/>
</mask>
<g mask="url(#mask1_31_8087)">
<path opacity="0.333" d="M276.693 242.311C276.693 242.311 281.631 266.189 317.845 262.072C344.882 258.999 315.376 236.547 315.376 236.547L276.693 242.311Z" fill="#C96A54"/>
</g>
<path d="M294.8 164.089C279.162 164.089 261.055 178.089 261.055 194.554C261.055 200.318 263.524 220.902 268.462 236.546C271.31 245.567 279.63 251.029 286.162 254.037C288.87 255.281 291.815 255.926 294.795 255.926C297.775 255.926 300.721 255.281 303.429 254.037C309.965 251.029 318.286 245.567 321.129 236.546C326.067 220.902 328.536 200.317 328.536 194.554C328.545 178.089 310.438 164.089 294.8 164.089Z" fill="#F4C5BE"/>
<mask id="mask2_31_8087" style="mask-type:luminance" maskUnits="userSpaceOnUse" x="261" y="164" width="68" height="92">
<path d="M261.055 194.555C261.055 200.318 263.524 220.902 268.462 236.547C271.309 245.569 279.63 251.031 286.162 254.038C288.87 255.282 291.815 255.927 294.795 255.927C297.775 255.927 300.721 255.282 303.429 254.038C309.964 251.031 318.286 245.569 321.129 236.547C326.067 220.903 328.536 200.318 328.536 194.555C328.545 178.089 310.438 164.089 294.799 164.089C279.161 164.089 261.055 178.089 261.055 194.555Z" fill="white"/>
</mask>
<g mask="url(#mask2_31_8087)">
<path opacity="0.334" d="M276.281 170.677C276.281 170.677 276.281 215.963 326.444 213.377C368.435 211.221 276.281 170.677 276.281 170.677Z" fill="#C96A54"/>
</g>
<path d="M272.99 170.405C272.99 170.405 289.165 212.728 326.298 210.088C347.89 208.552 317.433 162.443 317.433 162.443L280.396 160.796L272.99 170.405Z" fill="#2E3A5B"/>
<path d="M276.282 170.677C276.282 170.677 278.305 181.977 262.482 210.088C246.659 238.199 258.998 178.911 258.998 178.911L268.874 170.677H276.282Z" fill="#2E3A5B"/>
<path d="M226.075 439.099H362.701V387.226H226.075V439.099Z" fill="#0D71BA"/>
<path d="M222.372 423.718H367.228V328.206H222.372V423.718Z" fill="#F0F3FA"/>
<path d="M305.088 375.961C305.087 377.996 304.483 379.984 303.352 381.676C302.221 383.367 300.614 384.685 298.734 385.463C296.854 386.241 294.786 386.444 292.79 386.047C290.795 385.65 288.962 384.669 287.524 383.23C286.085 381.792 285.106 379.958 284.709 377.963C284.312 375.967 284.516 373.899 285.295 372.019C286.074 370.14 287.393 368.533 289.084 367.403C290.776 366.272 292.765 365.669 294.8 365.669C296.151 365.669 297.489 365.936 298.737 366.453C299.986 366.971 301.12 367.729 302.075 368.684C303.031 369.64 303.788 370.775 304.305 372.023C304.822 373.272 305.088 374.61 305.088 375.961Z" fill="#CAD5E5"/>
<g style="mix-blend-mode:multiply" opacity="0.146">
<path d="M234.306 394.9C230.422 393.844 226.386 393.462 222.372 393.768V423.718H367.228V328.206H347.104C337.16 331.439 325.544 338.07 312.496 350.437C298.949 363.275 270.52 403.957 234.306 394.9Z" fill="#BEC9DA"/>
</g>
<path d="M320.556 231.099C324.062 232.29 334.222 231.157 336.429 221.204C338.636 211.251 326.094 210.792 322.979 219.955C319.48 230.25 320.556 231.099 320.556 231.099Z" fill="#F4C5BE"/>
<path d="M269.043 231.099C265.537 232.299 255.377 231.161 253.17 221.208C250.963 211.255 263.505 210.792 266.621 219.955C270.121 230.25 269.043 231.103 269.043 231.103" fill="#F4C5BE"/>
<path d="M228.092 446.408C228.327 446.19 218.283 452.208 207.432 445.814C207.059 445.599 206.662 445.43 206.249 445.308C203.649 447.386 200.535 449.597 197.094 451.832C197.362 452.117 197.67 452.362 198.008 452.558C197.385 452.449 196.75 452.415 196.118 452.458C185.768 459.06 174.821 464.676 163.421 469.233C162.448 470.533 162.748 471.319 164.91 471.198C175.619 470.598 200.993 470.149 231.66 458.973C228.335 455.422 227.529 451.035 228.092 446.408Z" fill="#2E3A5B"/>
<path d="M163.422 469.232C174.822 464.676 185.77 459.06 196.122 452.459C187.155 452.932 166.944 464.51 163.422 469.232Z" fill="#0D71BA"/>
<path d="M194.58 449.448C194.68 449.556 196.112 450.948 197.095 451.829C200.536 449.597 203.652 447.386 206.25 445.308C202.392 444.117 197.764 447.279 194.58 449.448Z" fill="#0D71BA"/>
<path d="M440.543 406.451C446.766 413.934 438.689 445.045 366.377 459.113C294.065 473.181 226.667 460.913 226.667 460.913L223.843 447.765C223.843 447.765 248.283 435.221 296.286 421.338C341.824 408.169 410.991 370.916 440.543 406.451Z" fill="#232D47"/>
<mask id="mask3_31_8087" style="mask-type:luminance" maskUnits="userSpaceOnUse" x="223" y="391" width="220" height="75">
<path d="M296.287 421.338C248.283 435.22 223.843 447.764 223.843 447.764L226.665 460.911C226.665 460.911 294.065 473.18 366.375 459.111C438.687 445.044 446.763 413.934 440.543 406.45C431.478 395.552 418.689 391.5 403.998 391.5C370.787 391.5 327.857 412.206 296.287 421.338Z" fill="white"/>
</mask>
<g mask="url(#mask3_31_8087)">
<path d="M231.537 463.071C231.537 463.071 409.489 455.986 442.248 399.301C475.007 342.616 456.413 475.471 456.413 475.471L316.53 498.499L231.537 463.071Z" fill="#17233D"/>
</g>
<path d="M392.917 451.125C392.285 451.09 391.651 451.131 391.029 451.247C391.366 451.047 391.671 450.799 391.935 450.509C388.463 448.319 385.321 446.147 382.698 444.102C382.286 444.229 381.891 444.404 381.52 444.623C370.75 451.149 360.632 445.264 360.871 445.474C361.492 450.102 360.742 454.496 357.463 458.089C388.269 468.875 413.646 469.002 424.363 469.466C426.527 469.559 426.816 468.774 425.827 467.482C414.37 463.071 403.351 457.595 392.917 451.125Z" fill="#2E3A5B"/>
<path d="M392.918 451.125C403.352 457.595 414.37 463.071 425.827 467.482C422.246 462.805 401.888 451.485 392.918 451.125Z" fill="#0D71BA"/>
<path d="M394.42 448.097C391.209 445.966 386.541 442.864 382.699 444.102C385.322 446.148 388.467 448.319 391.935 450.509C392.907 449.609 394.321 448.209 394.42 448.097Z" fill="#0D71BA"/>
<path d="M147.944 408.177C141.816 415.738 150.287 446.743 222.771 459.894C295.255 473.045 362.492 459.922 362.492 459.922L365.147 446.74C365.147 446.74 340.547 434.507 292.375 421.234C246.675 408.643 177.042 372.27 147.944 408.177Z" fill="#232D47"/>
<mask id="mask4_31_8087" style="mask-type:luminance" maskUnits="userSpaceOnUse" x="146" y="392" width="220" height="74">
<path d="M147.944 408.177C141.816 415.738 150.286 446.743 222.771 459.894C295.256 473.043 362.492 459.922 362.492 459.922L365.147 446.741C365.147 446.741 340.547 434.507 292.375 421.234C261.018 412.594 218.392 392.758 185.325 392.758C170.2 392.758 157.076 396.907 147.944 408.177Z" fill="white"/>
</mask>
<g mask="url(#mask4_31_8087)">
<path d="M141.234 402.845C141.234 402.845 141.869 403.277 143.089 404.073C156.477 412.805 240.189 465.287 325.384 470.157C418.344 475.472 188.157 488.757 188.157 488.757L130.61 439.158" fill="#17233D"/>
</g>
<path d="M276.544 230.02C281.416 230.027 286.523 230.443 289.644 225.866C292.186 222.136 291.318 216.844 291.321 212.575C291.318 212.279 291.199 211.995 290.99 211.785C290.78 211.575 290.497 211.455 290.201 211.451L268.127 211.42C267.831 211.425 267.55 211.544 267.341 211.753C267.132 211.962 267.013 212.244 267.009 212.539C267.009 215.566 266.668 218.797 267.109 221.802C267.814 226.639 271.833 229.72 276.544 230.02C277.982 230.111 277.976 227.873 276.544 227.783C268.098 227.246 269.244 218.583 269.244 212.544C268.869 212.913 268.497 213.284 268.127 213.657L290.201 213.688C289.829 213.315 289.456 212.943 289.082 212.57C289.082 215.643 289.613 219.246 288.856 222.257C287.356 228.233 281.356 227.784 276.544 227.778C276.253 227.787 275.977 227.909 275.774 228.117C275.571 228.326 275.458 228.606 275.458 228.897C275.458 229.188 275.571 229.467 275.774 229.676C275.977 229.885 276.253 230.006 276.544 230.015" fill="#2E3A5B"/>
<path d="M307.82 230.02C312.692 230.027 317.799 230.443 320.92 225.866C323.462 222.136 322.594 216.844 322.597 212.575C322.594 212.279 322.475 211.995 322.266 211.785C322.057 211.575 321.773 211.455 321.477 211.451L299.403 211.42C299.108 211.425 298.826 211.544 298.617 211.753C298.408 211.962 298.289 212.244 298.285 212.539C298.285 215.566 297.944 218.797 298.385 221.802C299.09 226.639 303.109 229.72 307.82 230.02C309.258 230.111 309.252 227.873 307.82 227.783C299.374 227.246 300.52 218.583 300.52 212.544C300.145 212.913 299.773 213.284 299.403 213.657L321.477 213.688C321.105 213.315 320.732 212.943 320.358 212.57C320.358 215.643 320.889 219.246 320.132 222.257C318.632 228.233 312.632 227.784 307.82 227.778C307.529 227.787 307.253 227.909 307.05 228.117C306.848 228.326 306.734 228.606 306.734 228.897C306.734 229.188 306.848 229.467 307.05 229.676C307.253 229.885 307.529 230.006 307.82 230.015" fill="#2E3A5B"/>
<path d="M262.701 213.376H326.901C327.192 213.367 327.468 213.246 327.67 213.037C327.873 212.828 327.986 212.549 327.986 212.258C327.986 211.967 327.873 211.687 327.67 211.478C327.468 211.27 327.192 211.148 326.901 211.139H262.701C262.41 211.148 262.134 211.27 261.931 211.478C261.729 211.687 261.615 211.967 261.615 212.258C261.615 212.549 261.729 212.828 261.931 213.037C262.134 213.246 262.41 213.367 262.701 213.376Z" fill="#2E3A5B"/>
<path d="M169.644 210.39L176.762 204.325L181.575 209.985L174.458 216.051L169.644 210.39Z" fill="#2A3551"/>
<path d="M412.554 238.115L419.672 232.05L424.485 237.71L417.368 243.776L412.554 238.115Z" fill="#2A3551"/>
<path d="M125.924 289.272L128.31 282.78L133.462 284.679L131.075 291.174L125.924 289.272Z" fill="#E0E0E0"/>
<path d="M197.927 312.244L200.313 305.752L205.465 307.651L203.078 314.146L197.927 312.244Z" fill="#E0E0E0"/>
<path d="M402.858 346.306L405.243 339.814L410.395 341.712L408.009 348.208L402.858 346.306Z" fill="#E0E0E0"/>
<path d="M189.464 269.065L200.19 263.302L204.935 272.154L194.21 277.916L189.464 269.065Z" fill="#0D71BA"/>
<path d="M449.453 279.697L460.911 283.816L457.52 293.272L446.062 289.153L449.453 279.697Z" fill="#0D71BA"/>
<path opacity="0.674" d="M105.497 461.972C115.243 462.856 116.453 469.862 109.193 469.753C107.502 469.728 93.293 469.092 91.213 469.335C84.023 470.172 79.383 468.524 79.343 465.136C79.303 461.748 85.868 462.124 92.048 462.056C98.228 461.988 104.175 461.856 105.497 461.972Z" fill="#DDE2E9"/>
<path d="M111.029 423.064L110.988 423.524L110.98 423.573L110.9 424.454L110.835 425.19L109.714 437.518L108.326 452.675L107.09 466.215H86.8153L85.7093 452.675L84.4663 437.518L83.3203 423.524L83.2803 423.064H111.029Z" fill="#EEEFF2"/>
<path d="M110.989 423.524L110.98 423.572L110.9 424.454L110.833 425.189L109.714 437.517L108.326 452.674L107.09 466.214H104.233L105.225 452.674L106.339 437.517L107.3 424.446L107.373 423.524H110.989Z" fill="white"/>
<path d="M110.189 437.517L108.704 452.674H85.2975L84.0225 437.517H110.189Z" fill="#0D71BA"/>
<g style="mix-blend-mode:multiply">
<path d="M111.029 423.064L110.988 423.524L110.98 423.573L110.9 424.454L107.3 424.446L88.6233 424.414L89.3413 437.514L90.1643 452.671L90.9073 466.212H86.8153L85.7093 452.675L84.4663 437.518L83.3203 423.524L83.2803 423.064H111.029Z" fill="#E2E6E9"/>
</g>
<path d="M111.03 421.907H83.0791L84.6451 417.356H109.868L111.03 421.907Z" fill="#495B77"/>
<path d="M81.8682 423.524H112.337V421.907H81.8682V423.524Z" fill="#2F3A5B"/>
<path d="M90.0762 417.356L88.5272 421.907V423.524H81.8682V421.907H83.0782L84.6442 417.356H90.0762Z" fill="#232D47"/>
<path d="M112.337 421.907V423.524H110.989L110.981 423.572L107.373 423.524V421.907L106.05 417.356H109.868L111.03 421.907H112.337Z" fill="#7F8EA3"/>
<g opacity="0.599">
<path opacity="0.3" d="M332.272 285.951L339.265 285.392L338.816 279.837L331.824 280.393L332.272 285.951Z" fill="#0D71BA"/>
<path opacity="0.2" d="M356.124 85.5975L364.87 82.9632L362.693 75.7518L353.947 78.3862L356.124 85.5975Z" stroke="#0D71BA" stroke-width="2.97" stroke-miterlimit="10"/>
<path opacity="0.1" d="M553.131 275.687L550.04 267.087L542.953 269.629L546.043 278.229L553.131 275.687Z" stroke="#0D71BA" stroke-width="2.97" stroke-miterlimit="10"/>
<path opacity="0.391" d="M115.514 230.589L124.142 233.6L126.619 226.489L117.991 223.478L115.514 230.589Z" stroke="#0D71BA" stroke-width="2.97" stroke-miterlimit="10"/>
<path opacity="0.391" d="M280.113 504.58C278.444 506.249 278.45 508.961 280.126 510.638C281.803 512.314 284.515 512.32 286.184 510.651C287.853 508.982 287.847 506.27 286.17 504.593C284.494 502.917 281.782 502.911 280.113 504.58Z" stroke="#0D71BA" stroke-width="2.97" stroke-miterlimit="10"/>
<path opacity="0.2" d="M206.851 82.4317C205.182 84.1008 205.188 86.8129 206.864 88.4895C208.541 90.166 211.253 90.172 212.922 88.5029C214.591 86.8338 214.585 84.1216 212.908 82.4451C211.232 80.7686 208.52 80.7626 206.851 82.4317Z" stroke="#0D71BA" stroke-width="2.97" stroke-miterlimit="10"/>
<path opacity="0.2" d="M425.363 376.133C423.925 377.571 423.931 379.907 425.376 381.352C426.82 382.796 429.157 382.802 430.594 381.365C432.032 379.927 432.026 377.591 430.581 376.146C429.137 374.702 426.801 374.696 425.363 376.133Z" stroke="#0D71BA" stroke-width="2.97" stroke-miterlimit="10"/>
<path opacity="0.342" d="M177.968 467.144L186.209 465.094L179.803 458.903L177.968 467.144Z" stroke="#0D71BA" stroke-width="2.97043" stroke-miterlimit="10"/>
</g>
</svg>
