<svg width="799" height="676" viewBox="0 0 799 676" fill="none" xmlns="http://www.w3.org/2000/svg">
<path opacity="0.943" d="M448.14 535.259C695.53 370.417 731.84 540.467 779.377 485.859C826.913 431.251 689.268 361.327 643.142 265.701C602.118 180.653 716.982 6.20537 570.464 26.205C459.546 41.3458 435.249 257.718 198.652 255.286C-151.013 251.693 193.958 704.627 448.14 535.259Z" fill="#F0F1F3"/>
<g filter="url(#filter0_d_53_1888)">
<path d="M630.868 117.559H164.468C162.949 117.559 161.718 118.79 161.718 120.309V147.809C161.718 149.327 162.949 150.559 164.468 150.559H630.868C632.387 150.559 633.618 149.327 633.618 147.809V120.309C633.618 118.79 632.387 117.559 630.868 117.559Z" fill="white"/>
<path d="M630.869 117.147H164.468C162.722 117.147 161.306 118.562 161.306 120.309V147.81C161.306 149.556 162.722 150.972 164.468 150.972H630.869C632.615 150.972 634.031 149.556 634.031 147.81V120.309C634.031 118.562 632.615 117.147 630.869 117.147Z" stroke="#C9D1DB" stroke-opacity="0.11" stroke-width="0.825" stroke-miterlimit="10"/>
</g>
<path d="M384.279 122.266C384.192 122.266 384.119 122.236 384.057 122.177C383.996 122.118 383.966 122.043 383.966 121.953C383.966 121.862 383.996 121.787 384.057 121.728C384.119 121.667 384.192 121.636 384.279 121.636C384.368 121.636 384.443 121.667 384.504 121.728C384.567 121.787 384.598 121.862 384.598 121.953C384.598 122.039 384.567 122.113 384.504 122.174C384.443 122.235 384.368 122.266 384.279 122.266ZM384.515 126.059H384.031V123.034H384.515V126.059ZM388.007 126.059H387.523V124.334C387.523 123.692 387.288 123.371 386.82 123.371C386.577 123.371 386.376 123.462 386.217 123.645C386.059 123.826 385.981 124.056 385.981 124.334V126.059H385.496V123.034H385.981V123.536H385.992C386.221 123.154 386.552 122.963 386.985 122.963C387.316 122.963 387.569 123.07 387.744 123.285C387.919 123.498 388.007 123.806 388.007 124.21V126.059ZM390.985 125.92C390.752 126.06 390.477 126.13 390.158 126.13C389.726 126.13 389.378 125.99 389.112 125.71C388.848 125.429 388.716 125.064 388.716 124.617C388.716 124.119 388.859 123.719 389.144 123.418C389.43 123.115 389.811 122.963 390.288 122.963C390.554 122.963 390.788 123.012 390.991 123.111V123.607C390.766 123.449 390.526 123.371 390.27 123.371C389.961 123.371 389.707 123.482 389.508 123.704C389.311 123.925 389.212 124.215 389.212 124.576C389.212 124.93 389.305 125.21 389.49 125.415C389.677 125.62 389.927 125.722 390.24 125.722C390.504 125.722 390.752 125.634 390.985 125.459V125.92ZM392.202 126.059H391.717V121.58H392.202V126.059ZM393.431 122.266C393.344 122.266 393.27 122.236 393.209 122.177C393.148 122.118 393.118 122.043 393.118 121.953C393.118 121.862 393.148 121.787 393.209 121.728C393.27 121.667 393.344 121.636 393.431 121.636C393.519 121.636 393.594 121.667 393.655 121.728C393.718 121.787 393.75 121.862 393.75 121.953C393.75 122.039 393.718 122.113 393.655 122.174C393.594 122.235 393.519 122.266 393.431 122.266ZM393.667 126.059H393.183V123.034H393.667V126.059ZM397.159 126.059H396.674V124.334C396.674 123.692 396.44 123.371 395.971 123.371C395.729 123.371 395.528 123.462 395.369 123.645C395.211 123.826 395.132 124.056 395.132 124.334V126.059H394.648V123.034H395.132V123.536H395.144C395.373 123.154 395.704 122.963 396.137 122.963C396.468 122.963 396.721 123.07 396.896 123.285C397.071 123.498 397.159 123.806 397.159 124.21V126.059ZM400.657 125.817C400.657 126.927 400.125 127.483 399.061 127.483C398.687 127.483 398.36 127.412 398.081 127.27V126.785C398.421 126.975 398.746 127.069 399.055 127.069C399.8 127.069 400.172 126.673 400.172 125.882V125.551H400.16C399.93 125.937 399.583 126.13 399.12 126.13C398.744 126.13 398.441 125.996 398.211 125.728C397.982 125.458 397.868 125.097 397.868 124.644C397.868 124.13 397.991 123.721 398.237 123.418C398.485 123.115 398.824 122.963 399.253 122.963C399.661 122.963 399.963 123.126 400.16 123.453H400.172V123.034H400.657V125.817ZM400.172 124.691V124.245C400.172 124.005 400.09 123.799 399.927 123.628C399.765 123.456 399.564 123.371 399.321 123.371C399.022 123.371 398.788 123.48 398.618 123.698C398.449 123.915 398.364 124.219 398.364 124.611C398.364 124.948 398.445 125.218 398.606 125.421C398.77 125.622 398.986 125.722 399.253 125.722C399.525 125.722 399.746 125.626 399.915 125.432C400.086 125.239 400.172 124.992 400.172 124.691ZM403.546 122.266C403.459 122.266 403.385 122.236 403.324 122.177C403.263 122.118 403.233 122.043 403.233 121.953C403.233 121.862 403.263 121.787 403.324 121.728C403.385 121.667 403.459 121.636 403.546 121.636C403.634 121.636 403.709 121.667 403.77 121.728C403.833 121.787 403.865 121.862 403.865 121.953C403.865 122.039 403.833 122.113 403.77 122.174C403.709 122.235 403.634 122.266 403.546 122.266ZM403.782 126.059H403.298V123.034H403.782V126.059ZM407.274 126.059H406.789V124.334C406.789 123.692 406.555 123.371 406.086 123.371C405.844 123.371 405.643 123.462 405.484 123.645C405.326 123.826 405.247 124.056 405.247 124.334V126.059H404.763V123.034H405.247V123.536H405.259C405.488 123.154 405.818 122.963 406.252 122.963C406.583 122.963 406.836 123.07 407.011 123.285C407.186 123.498 407.274 123.806 407.274 124.21V126.059ZM410.252 125.92C410.019 126.06 409.743 126.13 409.424 126.13C408.993 126.13 408.644 125.99 408.379 125.71C408.115 125.429 407.983 125.064 407.983 124.617C407.983 124.119 408.126 123.719 408.411 123.418C408.697 123.115 409.078 122.963 409.554 122.963C409.82 122.963 410.055 123.012 410.257 123.111V123.607C410.033 123.449 409.793 123.371 409.537 123.371C409.227 123.371 408.973 123.482 408.774 123.704C408.578 123.925 408.479 124.215 408.479 124.576C408.479 124.93 408.572 125.21 408.757 125.415C408.944 125.62 409.194 125.722 409.507 125.722C409.771 125.722 410.019 125.634 410.252 125.459V125.92ZM411.153 126.124C411.062 126.124 410.984 126.091 410.919 126.026C410.856 125.961 410.825 125.883 410.825 125.793C410.825 125.702 410.856 125.625 410.919 125.56C410.984 125.493 411.062 125.459 411.153 125.459C411.245 125.459 411.324 125.493 411.389 125.56C411.454 125.625 411.486 125.702 411.486 125.793C411.486 125.883 411.454 125.961 411.389 126.026C411.324 126.091 411.245 126.124 411.153 126.124Z" fill="#8C919C"/>
<path d="M169.694 127.459C170.757 127.459 171.619 126.597 171.619 125.534C171.619 124.471 170.757 123.609 169.694 123.609C168.631 123.609 167.769 124.471 167.769 125.534C167.769 126.597 168.631 127.459 169.694 127.459Z" fill="#835ECD"/>
<path d="M176.294 127.459C177.357 127.459 178.219 126.597 178.219 125.534C178.219 124.471 177.357 123.609 176.294 123.609C175.231 123.609 174.369 124.471 174.369 125.534C174.369 126.597 175.231 127.459 176.294 127.459Z" fill="#835ECD"/>
<path d="M182.893 127.459C183.956 127.459 184.818 126.597 184.818 125.534C184.818 124.471 183.956 123.609 182.893 123.609C181.83 123.609 180.968 124.471 180.968 125.534C180.968 126.597 181.83 127.459 182.893 127.459Z" fill="#835ECD"/>
<g filter="url(#filter1_d_53_1888)">
<path d="M161.718 132.959H633.618V499.259C633.618 500.718 633.039 502.117 632.007 503.148C630.976 504.18 629.577 504.759 628.118 504.759H167.218C165.76 504.759 164.361 504.18 163.329 503.148C162.298 502.117 161.718 500.718 161.718 499.259V132.959Z" fill="white"/>
</g>
<path d="M161.718 132.547H633.618C633.727 132.547 633.832 132.59 633.909 132.668C633.987 132.745 634.03 132.85 634.03 132.959V499.259C634.03 500.827 633.407 502.331 632.299 503.439C631.19 504.548 629.686 505.171 628.118 505.171H167.218C165.65 505.171 164.146 504.548 163.038 503.439C161.929 502.331 161.306 500.827 161.306 499.259V132.959C161.306 132.85 161.35 132.745 161.427 132.668C161.504 132.59 161.609 132.547 161.718 132.547Z" stroke="#C9D1DB" stroke-opacity="0.11" stroke-width="0.825" stroke-miterlimit="10"/>
<g filter="url(#filter2_d_53_1888)">
<path d="M685.319 274.309H608.594C607.227 274.309 606.119 275.417 606.119 276.784V378.303C606.119 379.67 607.227 380.778 608.594 380.778H685.319C686.686 380.778 687.794 379.67 687.794 378.303V276.784C687.794 275.417 686.686 274.309 685.319 274.309Z" fill="white"/>
<path d="M685.32 273.897H608.594C606.999 273.897 605.707 275.189 605.707 276.784V378.304C605.707 379.898 606.999 381.191 608.594 381.191H685.32C686.914 381.191 688.207 379.898 688.207 378.304V276.784C688.207 275.189 686.914 273.897 685.32 273.897Z" stroke="#C9D1DB" stroke-opacity="0.11" stroke-width="0.825" stroke-miterlimit="10"/>
</g>
<path d="M656.168 292.459H637.468C635.949 292.459 634.718 293.69 634.718 295.209V313.909C634.718 315.427 635.949 316.659 637.468 316.659H656.168C657.687 316.659 658.918 315.427 658.918 313.909V295.209C658.918 293.69 657.687 292.459 656.168 292.459Z" fill="#0D71BA"/>
<path d="M678.718 334.542H615.193V337.019H678.718V334.542Z" fill="#E5E7EB"/>
<path d="M678.718 342.799H615.193V345.276H678.718V342.799Z" fill="#E5E7EB"/>
<path d="M678.718 351.055H615.193V353.532H678.718V351.055Z" fill="#E5E7EB"/>
<path d="M678.718 359.311H615.193V361.788H678.718V359.311Z" fill="#E5E7EB"/>
<path d="M661.394 367.568H632.519V370.045H661.394V367.568Z" fill="#E5E7EB"/>
<g filter="url(#filter3_d_53_1888)">
<path d="M183.443 348.009H129.899C128.943 348.009 128.167 348.784 128.167 349.741V420.915C128.167 421.871 128.943 422.647 129.899 422.647H183.443C184.4 422.647 185.175 421.871 185.175 420.915V349.741C185.175 348.784 184.4 348.009 183.443 348.009Z" fill="white"/>
<path d="M183.443 347.72H129.899C128.783 347.72 127.878 348.625 127.878 349.741V420.914C127.878 422.03 128.783 422.935 129.899 422.935H183.443C184.56 422.935 185.464 422.03 185.464 420.914V349.741C185.464 348.625 184.56 347.72 183.443 347.72Z" stroke="#C9D1DB" stroke-opacity="0.11" stroke-width="0.577" stroke-miterlimit="10"/>
</g>
<path d="M163.096 360.733H150.055C148.992 360.733 148.13 361.595 148.13 362.658V375.773C148.13 376.836 148.992 377.698 150.055 377.698H163.096C164.16 377.698 165.021 376.836 165.021 375.773V362.658C165.021 361.595 164.16 360.733 163.096 360.733Z" fill="#0D71BA"/>
<path d="M178.841 390.234H134.501V391.97H178.841V390.234Z" fill="#E5E7EB"/>
<path d="M178.841 396.022H134.501V397.758H178.841V396.022Z" fill="#E5E7EB"/>
<path d="M178.841 401.81H134.501V403.546H178.841V401.81Z" fill="#E5E7EB"/>
<path d="M178.841 407.598H134.501V409.334H178.841V407.598Z" fill="#E5E7EB"/>
<path d="M166.749 413.386H146.595V415.122H166.749V413.386Z" fill="#E5E7EB"/>
<path d="M628.68 112.014L635.552 106.166L640.202 111.627L633.33 117.476L628.68 112.014Z" fill="#8E67D7"/>
<path d="M586.011 119.826L588.315 113.561L593.292 115.395L590.989 121.66L586.011 119.826Z" fill="#E5E7EB"/>
<path d="M666.368 125.61L673.008 126.33L672.432 131.605L665.793 130.886L666.368 125.61Z" fill="#E5E7EB"/>
<path d="M622.826 72.9179L618.463 67.8651L622.48 64.4014L626.842 69.4532L622.826 72.9179Z" fill="#DCD1F2"/>
<path d="M630.245 157.597L640.601 152.041L645.187 160.581L634.831 166.136L630.245 157.597Z" fill="#FFC84A"/>
<path d="M157.549 474.893L164.421 469.044L169.071 474.506L162.199 480.355L157.549 474.893Z" fill="#8E67D7"/>
<path d="M133.36 511.426L135.665 505.161L140.642 506.995L138.338 513.26L133.36 511.426Z" fill="#E5E7EB"/>
<path d="M176.495 503.546L186.851 497.991L191.437 506.531L181.081 512.086L176.495 503.546Z" fill="#FFC84A"/>
<path d="M432.264 317.207L442.175 302.307C442.175 302.307 457.285 314.203 471.707 313.09L468.061 332.541C468.061 332.541 448.561 334.857 432.264 317.207Z" fill="#E1E6ED"/>
<path d="M456.914 275.426C456.914 275.426 433.108 247.762 425.936 221.499C425.936 221.499 397.103 224.802 389.508 222.845C389.508 222.845 391.804 242.65 416.135 271.388C416.135 271.388 449.706 272.826 456.914 275.426" fill="#E1E6ED"/>
<path d="M390.904 336.874L427.253 332.415C427.253 332.415 433.997 362.393 457.967 377.761L424.955 394.247C424.955 394.247 391.404 374.326 390.904 336.874Z" fill="#E1E6ED"/>
<path d="M377.97 443.741C379.599 440.575 377.311 437.092 372.818 436.49C365.665 435.534 359.229 439.443 352.05 434.576C351.468 434.182 350.969 434.883 351.548 435.278C354.557 437.318 357.841 437.992 361.243 438.064C363.437 438.071 365.594 437.926 367.694 437.63C368.883 437.452 370.102 437.352 371.342 437.331C374.964 437.356 378.755 439.828 377.044 443.159C376.793 443.645 377.718 444.231 377.97 443.741Z" fill="#2E3A5B"/>
<path d="M360.143 413.74L372.249 431.473L383.239 430.312L374.66 399.816L360.143 413.74Z" fill="#FFB2B4"/>
<path d="M367.391 425.871L371.19 431.422L383.029 434.411L379.388 421.494L367.391 425.871Z" fill="#E1E6ED"/>
<path d="M360.78 413.637L364.106 418.515L380.712 419.397L375.202 399.794L360.78 413.637Z" fill="#EC9193"/>
<path d="M387.356 429.989C382.547 428.959 379.786 426.156 378.176 424.664L378.126 424.695C378.716 429.766 372.803 431.745 372.803 431.745L371.704 430.702C371.417 430.429 371.042 430.248 370.661 430.198C370.279 430.147 369.92 430.232 369.659 430.433C368.875 431.038 368.402 431.481 368.501 431.605C369.999 433.482 370.142 438.265 369.929 440.76C369.662 443.883 369.423 451.303 367.376 453.075C365.33 454.846 357.253 461.56 363.111 466.009C368.97 470.458 397.473 439.12 397.687 436.625C397.9 434.13 392.164 431.018 387.356 429.989Z" fill="#0D71BA"/>
<path d="M362.437 466.291C368.443 470.845 397.671 438.774 397.887 436.22C397.965 435.327 397.288 434.354 396.174 433.425C393.125 437.475 375.304 460.606 361.956 465.892C362.11 466.031 362.271 466.163 362.437 466.29" fill="#2E3A5B"/>
<path d="M387.6 437.15C387.204 437.654 386.624 438.008 385.935 438.167C385.246 438.326 384.479 438.283 383.73 438.044C382.981 437.805 382.284 437.38 381.728 436.823C381.172 436.266 380.781 435.602 380.605 434.915C380.429 434.228 380.476 433.549 380.739 432.963C381.003 432.378 381.471 431.913 382.085 431.626C382.699 431.34 383.431 431.245 384.189 431.354C384.947 431.464 385.696 431.771 386.342 432.239C387.208 432.866 387.827 433.736 388.063 434.657C388.299 435.578 388.132 436.475 387.6 437.15Z" fill="#E1E6ED"/>
<path d="M387.485 296.406C379.773 299.075 326.323 306.017 320.81 318.526C315.297 331.035 363.823 413.208 365.411 414.357C365.411 414.357 379.134 417.492 385.716 409.152C385.716 409.152 386.402 379.079 361.564 348.981L418.993 320.686L387.485 296.406Z" fill="#F4B132"/>
<mask id="mask0_53_1888" style="mask-type:luminance" maskUnits="userSpaceOnUse" x="319" y="297" width="101" height="118">
<path d="M386.907 297.498L419.143 322.291L361.555 348.986C387.141 379.389 386.933 409.171 386.933 409.171C380.415 417.281 366.493 413.853 366.493 413.853C364.873 412.68 314.505 330.126 319.875 317.859" fill="white"/>
</mask>
<g mask="url(#mask0_53_1888)">
<path d="M353.699 322.41C337.193 323.151 312.791 331.783 332.825 349.685C353.179 367.872 391.398 342.963 392.874 324.667C392.74 324.44 366.906 321.814 353.699 322.41Z" fill="#0D71BA"/>
</g>
<mask id="mask1_53_1888" style="mask-type:luminance" maskUnits="userSpaceOnUse" x="319" y="297" width="101" height="118">
<path d="M386.907 297.498L419.143 322.291L361.555 348.986C387.141 379.389 386.933 409.171 386.933 409.171C380.415 417.281 366.493 413.853 366.493 413.853C364.873 412.68 314.505 330.126 319.875 317.859C325.246 305.593 379.156 299.962 386.907 297.498Z" fill="white"/>
</mask>
<g mask="url(#mask1_53_1888)">
<path d="M353.429 344.983L381.867 409.683L397.068 381.312L353.429 344.983Z" fill="#0D71BA"/>
</g>
<path d="M480.98 209.778C480.98 209.778 470.807 223.378 475.907 233.325C481.007 243.273 460.374 245.313 460.374 245.313L437.24 234.796L438.807 232.808L444.716 225.313L450.7 226.411L455.802 211.239L480.98 209.778Z" fill="#F4C5BE"/>
<path d="M440.267 233.402C430.85 235.555 403.204 245.459 391.508 255.498C391.508 255.498 362.777 236.255 351.472 229.52C340.167 222.784 340.407 234.452 340.407 234.452C340.407 234.452 378.993 272.729 387.878 277.27C396.763 281.81 444.728 265.65 444.728 265.65L442.982 235.335C442.966 235.057 442.874 234.772 442.714 234.507C442.554 234.241 442.33 234.003 442.062 233.812C441.794 233.621 441.491 233.484 441.178 233.413C440.865 233.341 440.552 233.338 440.267 233.402Z" fill="#0D71BA"/>
<path d="M350.847 237.346C354.197 233.61 358.611 230.049 363.453 228.202C368.514 226.271 370.083 229.277 366.665 233.389C364.827 235.601 358.652 241.342 355.338 241.098C353.39 240.952 352.353 239.051 350.847 237.346Z" fill="#EC9193"/>
<path d="M399.634 197.56C399.634 197.56 381.818 223.411 381.349 250.346C381.349 250.346 349.714 242.348 342.156 243.263C342.156 243.263 339.191 222.469 357.271 195.553C357.271 195.553 392.659 199.221 399.631 197.56" fill="#F0F3FA"/>
<path d="M383.114 216.538C382.296 218.46 381.174 222.131 381.014 222.75C380.855 223.369 352.879 220.546 351.987 220.248C351.095 219.949 355.901 212.292 355.901 212.292L383.114 216.538Z" fill="#E1E6ED"/>
<path d="M376.243 231.219L375.786 232.152L349.352 228.452L350.259 227.536L376.243 231.219Z" fill="#E1E6ED"/>
<path d="M377.981 227.839L377.525 228.772L351.09 225.072L351.996 224.157L377.981 227.839Z" fill="#E1E6ED"/>
<path d="M384.522 211.881L384.065 212.813L357.631 209.114L358.538 208.198L384.522 211.881Z" fill="#E1E6ED"/>
<path d="M386.26 208.501L385.804 209.434L359.369 205.734L360.276 204.818L386.26 208.501Z" fill="#E1E6ED"/>
<path d="M355.021 235.568C354.869 236.178 354.76 236.803 354.697 237.44C354.654 238.178 347.903 236.824 347.903 236.824L348.153 234.725L355.021 235.568Z" fill="#E1E6ED"/>
<path d="M354.367 239.302C354.367 239.302 354.176 239.404 354.133 240.125C354.091 240.846 347.415 239.523 347.415 239.523L347.576 238.478L354.367 239.302Z" fill="#E1E6ED"/>
<path d="M354.864 231.282C354.905 232.201 353.525 232.543 353.525 232.543C353.525 232.543 354.876 233.834 354.846 235.045C354.818 236.208 352.443 236.569 352.443 236.569C352.443 236.569 353.841 238.378 353.304 239.388C352.542 240.82 349.839 240.667 349.839 240.667C349.839 240.667 353.797 242.565 353.495 243.867C353.427 244.157 352.774 244.097 352.487 244.082C349.013 243.911 344.779 242.11 341.403 240.822C341.05 240.702 340.708 240.538 340.388 240.335C339.998 240.036 339.661 239.681 339.398 239.29C338.703 238.365 337.006 236.535 337.039 235.519C337.06 234.856 338.75 234.129 338.689 233.772C338.466 232.773 338.622 231.802 339.131 231.024C339.367 230.657 339.707 230.455 339.64 229.965C339.535 229.456 339.504 228.95 339.549 228.46C339.696 227.922 340.326 227.425 340.405 227.183C340.49 226.923 340.347 226.581 340.39 226.301C340.429 225.942 340.596 225.625 340.869 225.397C344.217 222.862 354.793 229.733 354.864 231.282Z" fill="#FFB2B4"/>
<mask id="mask2_53_1888" style="mask-type:luminance" maskUnits="userSpaceOnUse" x="336" y="224" width="19" height="21">
<path d="M340.681 225.399C340.411 225.617 340.247 225.925 340.213 226.278C340.175 226.552 340.325 226.892 340.245 227.148C340.169 227.383 339.541 227.858 339.404 228.382C339.366 228.863 339.404 229.363 339.517 229.867C339.595 230.351 339.256 230.542 339.023 230.897C338.524 231.652 338.383 232.605 338.623 233.595C338.691 233.948 337.001 234.624 336.991 235.276C336.976 236.278 338.714 238.122 339.427 239.05C339.698 239.442 340.042 239.8 340.44 240.104C340.765 240.311 341.112 240.481 341.469 240.607C341.882 240.771 342.312 240.942 342.746 241.117C345.914 242.387 349.602 243.863 352.676 244.084C352.966 244.104 353.623 244.18 353.687 243.895C353.97 242.62 349.955 240.655 349.955 240.655C349.955 240.655 352.678 240.87 353.421 239.477C353.945 238.495 352.509 236.679 352.509 236.679C352.509 236.679 354.893 236.38 354.902 235.235C354.912 234.042 353.532 232.738 353.532 232.738C353.532 232.738 355.119 232.451 354.858 231.527C354.692 230.947 349.989 227.387 345.862 225.75C343.758 224.916 341.805 224.582 340.68 225.398" fill="white"/>
</mask>
<g mask="url(#mask2_53_1888)">
<path d="M348.638 230.247C351.026 231.3 353.401 232.378 355.946 232.864C356.643 232.997 356.599 232.094 355.903 231.961C353.468 231.496 351.167 230.419 348.885 229.413C348.223 229.121 347.981 229.959 348.638 230.247Z" fill="#EC9193"/>
</g>
<mask id="mask3_53_1888" style="mask-type:luminance" maskUnits="userSpaceOnUse" x="336" y="224" width="19" height="21">
<path d="M340.681 225.399C340.411 225.617 340.247 225.925 340.213 226.278C340.175 226.552 340.325 226.892 340.245 227.148C340.169 227.383 339.541 227.858 339.404 228.382C339.366 228.863 339.404 229.363 339.517 229.867C339.595 230.351 339.256 230.542 339.023 230.897C338.524 231.652 338.383 232.605 338.623 233.595C338.691 233.948 337.001 234.624 336.991 235.276C336.976 236.278 338.714 238.122 339.427 239.05C339.698 239.442 340.042 239.8 340.44 240.104C340.765 240.311 341.112 240.481 341.469 240.607C341.882 240.771 342.312 240.942 342.746 241.117C345.914 242.387 349.602 243.863 352.676 244.084C352.966 244.104 353.623 244.18 353.687 243.895C353.97 242.62 349.955 240.655 349.955 240.655C349.955 240.655 352.678 240.87 353.421 239.477C353.945 238.495 352.509 236.679 352.509 236.679C352.509 236.679 354.893 236.38 354.902 235.235C354.912 234.042 353.532 232.738 353.532 232.738C353.532 232.738 355.119 232.451 354.858 231.527C354.692 230.947 349.989 227.387 345.862 225.75C343.758 224.916 341.805 224.582 340.68 225.398" fill="white"/>
</mask>
<g mask="url(#mask3_53_1888)">
<path d="M347.289 235.035C349.439 235.856 351.629 236.549 353.841 237.11C354.528 237.284 354.785 236.451 354.088 236.274C351.876 235.713 349.686 235.02 347.536 234.2C346.859 233.943 346.614 234.777 347.289 235.035Z" fill="#EC9193"/>
</g>
<mask id="mask4_53_1888" style="mask-type:luminance" maskUnits="userSpaceOnUse" x="336" y="224" width="19" height="21">
<path d="M340.681 225.399C340.411 225.617 340.247 225.925 340.213 226.278C340.175 226.552 340.325 226.892 340.245 227.148C340.169 227.383 339.541 227.858 339.404 228.382C339.366 228.863 339.404 229.363 339.517 229.867C339.595 230.351 339.256 230.542 339.023 230.897C338.524 231.652 338.383 232.605 338.623 233.595C338.691 233.948 337.001 234.624 336.991 235.276C336.976 236.278 338.714 238.122 339.427 239.05C339.698 239.442 340.042 239.8 340.44 240.104C340.765 240.311 341.112 240.481 341.469 240.607C341.882 240.771 342.312 240.942 342.746 241.117C345.914 242.387 349.602 243.863 352.676 244.084C352.966 244.104 353.623 244.18 353.687 243.895C353.97 242.62 349.955 240.655 349.955 240.655C349.955 240.655 352.678 240.87 353.421 239.477C353.945 238.495 352.509 236.679 352.509 236.679C352.509 236.679 354.893 236.38 354.902 235.235C354.912 234.042 353.532 232.738 353.532 232.738C353.532 232.738 355.119 232.451 354.858 231.527C354.692 230.947 349.989 227.387 345.862 225.75C343.758 224.916 341.805 224.582 340.68 225.398" fill="white"/>
</mask>
<g mask="url(#mask4_53_1888)">
<path d="M344.832 239.445C347.035 240.589 349.41 241.379 351.809 241.766C352.509 241.878 352.466 240.972 351.765 240.858C349.56 240.507 347.377 239.785 345.351 238.736C344.713 238.408 344.188 239.113 344.832 239.445Z" fill="#EC9193"/>
</g>
<path d="M314.377 435.862L312.918 454.608L323.796 460.224L337.502 435.096L314.377 435.862Z" fill="#FFB2B4"/>
<path d="M313.083 449.615L312.633 455.346L323 460.663L326.89 453.579L313.083 449.615Z" fill="#E1E6ED"/>
<path d="M315.017 435.635L314.506 442.202L328.884 450.713L337.502 434.89L315.017 435.635Z" fill="#EC9193"/>
<path d="M327.133 466.718C324.485 463.054 324.802 460.001 324.867 458.281L324.805 458.262C321.023 460.832 315.07 457.718 315.07 457.718L315.136 456.533C315.152 456.222 315.03 455.894 314.793 455.617C314.557 455.339 314.225 455.135 313.868 455.046C312.795 454.782 312.083 454.655 312.052 454.774C311.584 456.584 307.715 458.732 305.488 459.659C302.7 460.819 296.361 463.843 293.396 463.233C290.431 462.623 278.973 460.086 279.546 465.922C280.119 471.758 326.921 477.417 329.149 476.49C331.376 475.563 329.782 470.383 327.133 466.718Z" fill="#0D71BA"/>
<path d="M279.026 467.021C279.597 472.616 326.253 478.036 328.473 477.148C329.251 476.837 329.56 476.025 329.522 474.951C324.085 474.67 292.742 472.797 279.008 466.561C279.005 466.713 279.011 466.866 279.026 467.021Z" fill="#2E3A5B"/>
<path d="M321.702 467.259C321.305 467.762 320.726 468.115 320.037 468.273C319.348 468.431 318.58 468.387 317.831 468.147C317.082 467.907 316.385 467.482 315.829 466.924C315.272 466.367 314.881 465.703 314.704 465.017C314.527 464.33 314.574 463.652 314.837 463.067C315.1 462.483 315.568 462.019 316.182 461.733C316.795 461.448 317.528 461.354 318.286 461.464C319.043 461.574 319.793 461.882 320.439 462.35C321.306 462.978 321.926 463.848 322.162 464.768C322.399 465.689 322.234 466.585 321.702 467.259Z" fill="#E1E6ED"/>
<path d="M402.694 318.131C387.951 320.65 344.203 335.163 336.587 345.199C319.484 367.734 311.906 425.672 313.385 432.004C313.385 432.004 322.076 434.135 335.664 439.59C335.664 439.59 364.079 392.265 368.846 370.015C369.267 368.055 410.269 369.531 441.678 346.724C455.861 336.427 402.694 318.131 402.694 318.131Z" fill="url(#paint0_linear_53_1888)"/>
<mask id="mask5_53_1888" style="mask-type:luminance" maskUnits="userSpaceOnUse" x="313" y="319" width="132" height="120">
<path d="M402.015 319.209C402.015 319.209 454.716 336.231 442.334 347.828C418.904 369.771 368.988 367.993 368.593 369.928C364.112 391.892 336.111 438.209 336.111 438.209C322.295 432.5 313.477 430.192 313.477 430.192C311.886 423.881 318.666 366.579 335.61 344.601C343.155 334.817 387.152 321.383 402.015 319.209Z" fill="white"/>
</mask>
<g mask="url(#mask5_53_1888)">
<path d="M443.437 331.94C417.418 352.757 364.966 349.482 356.043 360.517C341.592 378.39 329.885 443.978 329.885 443.978L433.855 401.39L448.137 344.782L443.437 331.94Z" fill="#0D71BA"/>
</g>
<path d="M442.921 348.455C442.666 348.635 442.407 348.811 442.148 348.989C420.26 365.755 382.431 368.547 372.591 369.853C383.646 391.44 383.435 408.728 383.435 408.728C376.921 416.89 363.122 413.574 363.122 413.574C362.792 413.335 360.435 409.67 356.945 403.893C347.893 422.056 337.779 438.851 337.779 438.851C324.134 433.263 315.419 431.031 315.419 431.031C314.1 425.667 319.014 383.226 330.976 357.18C321.992 339.332 315.187 322.928 317.369 317.949C322.766 305.64 376.307 299.576 384.015 297.05L415.878 321.585L413.043 322.928C425.48 327.626 445.789 336.515 445.271 344.304C445.399 345.791 444.699 347.194 442.921 348.455Z" fill="url(#paint1_linear_53_1888)"/>
<mask id="mask6_53_1888" style="mask-type:luminance" maskUnits="userSpaceOnUse" x="315" y="297" width="131" height="142">
<path d="M443.038 349.153C442.782 349.331 442.524 349.503 442.265 349.679C420.397 366.2 382.453 368.662 372.587 369.88C383.803 391.482 383.689 408.705 383.689 408.705C377.199 416.782 363.333 413.362 363.333 413.362C363.001 413.121 360.615 409.45 357.08 403.664C348.1 421.685 338.047 438.334 338.047 438.334C324.323 432.65 315.566 430.352 315.566 430.352C314.212 424.998 318.902 382.752 330.757 356.902C321.641 339.043 314.72 322.642 316.881 317.7C322.227 305.481 375.917 299.891 383.637 297.438L415.749 322.153L412.912 323.468C425.418 328.253 445.848 337.281 445.372 345.037C445.509 346.52 444.814 347.912 443.038 349.153Z" fill="white"/>
</mask>
<g mask="url(#mask6_53_1888)">
<path d="M385.108 290.703C385.108 290.703 381.862 315.699 424.656 349.067C470.647 384.926 443.632 336.996 443.632 336.996L385.108 290.703Z" fill="#0D71BA"/>
</g>
<path d="M484.531 242.427C484.263 241.681 479.095 239.926 472.513 237.966C465.39 244.212 451.053 248.088 442.881 241.654C436.194 236.389 442.929 233.003 447.172 231.001C444.884 230.406 443.479 230.048 443.479 230.048C437.536 228.154 426.322 228.227 420.524 241.864C414.727 255.5 391.487 284.95 387.669 285.077C383.851 285.204 398.453 326.393 448.867 337.117C448.867 337.117 499.103 282.871 484.532 242.428" fill="#0D71BA"/>
<path d="M494.679 187.701C493.331 189.692 491.268 191.149 488.75 191.889C486.233 192.629 483.374 192.618 480.535 191.858C477.696 191.097 475.005 189.622 472.803 187.617C470.6 185.613 468.984 183.17 468.16 180.598C467.335 178.025 467.34 175.438 468.172 173.165C469.004 170.891 470.626 169.032 472.834 167.824C475.042 166.616 477.736 166.112 480.575 166.376C483.415 166.641 486.272 167.661 488.786 169.309C492.156 171.519 494.67 174.697 495.775 178.146C496.88 181.595 496.486 185.032 494.679 187.701Z" fill="#2E3A5B"/>
<path d="M490.977 193.405C489.077 193.204 487.172 192.5 485.504 191.38C483.836 190.26 482.479 188.775 481.606 187.113C480.732 185.451 480.381 183.687 480.597 182.043C480.813 180.399 481.586 178.95 482.818 177.878C484.05 176.807 485.686 176.161 487.519 176.022C489.353 175.884 491.301 176.259 493.117 177.101C494.934 177.943 496.537 179.213 497.724 180.751C498.912 182.289 499.63 184.026 499.788 185.741C499.999 188.042 499.19 190.142 497.538 191.579C495.885 193.015 493.526 193.672 490.977 193.405Z" fill="#2E3A5B"/>
<path d="M487.614 204.883C484.733 204.58 481.846 203.512 479.318 201.815C476.79 200.119 474.734 197.869 473.41 195.35C472.086 192.831 471.554 190.157 471.88 187.666C472.207 185.175 473.378 182.978 475.245 181.353C477.113 179.729 479.592 178.75 482.37 178.54C485.149 178.33 488.101 178.899 490.854 180.174C493.607 181.45 496.037 183.374 497.837 185.705C499.637 188.036 500.725 190.668 500.965 193.268C501.286 196.755 500.06 199.938 497.556 202.116C495.053 204.294 491.476 205.29 487.614 204.883Z" fill="#2E3A5B"/>
<path d="M477.733 215.542C475.833 215.342 473.928 214.637 472.26 213.518C470.592 212.398 469.235 210.913 468.362 209.251C467.488 207.589 467.137 205.825 467.353 204.181C467.569 202.537 468.342 201.088 469.574 200.016C470.806 198.944 472.442 198.298 474.275 198.16C476.109 198.022 478.057 198.397 479.873 199.239C481.69 200.081 483.293 201.351 484.48 202.889C485.668 204.427 486.386 206.163 486.544 207.879C486.755 210.18 485.946 212.279 484.293 213.716C482.641 215.153 480.282 215.81 477.733 215.542Z" fill="#2E3A5B"/>
<path d="M469.06 202.015C465.685 201.659 462.303 200.408 459.342 198.42C456.38 196.432 453.971 193.796 452.42 190.845C450.869 187.895 450.246 184.762 450.629 181.843C451.012 178.925 452.384 176.351 454.571 174.448C456.759 172.545 459.664 171.399 462.919 171.153C466.174 170.907 469.633 171.574 472.858 173.068C476.083 174.562 478.93 176.817 481.038 179.548C483.147 182.278 484.422 185.362 484.703 188.408C485.079 192.493 483.642 196.222 480.708 198.773C477.775 201.325 473.585 202.491 469.06 202.015Z" fill="#2E3A5B"/>
<path d="M485.862 211.532C484.892 211.43 483.92 211.07 483.068 210.498C482.217 209.927 481.524 209.169 481.078 208.32C480.633 207.472 480.453 206.571 480.563 205.732C480.674 204.893 481.068 204.153 481.697 203.606C482.326 203.059 483.161 202.729 484.097 202.659C485.033 202.588 486.027 202.78 486.954 203.209C487.882 203.639 488.7 204.287 489.306 205.072C489.913 205.857 490.279 206.744 490.36 207.62C490.468 208.794 490.055 209.866 489.211 210.599C488.368 211.333 487.163 211.668 485.862 211.532Z" fill="#2E3A5B"/>
<path d="M488.787 208.339C486.941 208.144 485.091 207.46 483.47 206.372C481.85 205.284 480.532 203.842 479.683 202.227C478.835 200.613 478.494 198.899 478.704 197.302C478.913 195.705 479.664 194.297 480.861 193.256C482.058 192.215 483.647 191.588 485.428 191.453C487.209 191.319 489.102 191.683 490.866 192.501C492.631 193.319 494.189 194.552 495.342 196.047C496.496 197.541 497.193 199.228 497.347 200.895C497.552 203.13 496.766 205.17 495.161 206.566C493.556 207.962 491.263 208.6 488.787 208.339Z" fill="#2E3A5B"/>
<path d="M468.047 173.02C460.696 171.765 455.017 174.237 448.382 186.589C441.616 199.188 443.677 214.299 447.12 216.443C457.274 222.766 476.203 221.911 479.225 213.895C483.43 202.73 489.528 191.765 486.564 185.857C483.599 179.95 478.384 174.786 468.047 173.02Z" fill="#F4C5BE"/>
<path d="M455.749 174.522C451.545 179.01 463.223 189.354 478.021 189.467C478.021 189.467 468.222 200.89 476.663 206.33C478.716 207.654 472.999 212.267 478.276 215.347C478.276 215.347 479.58 213.458 483.801 211.986C490.789 209.551 497.328 205.955 497.673 194.071C498.223 175.102 469.313 160.048 455.749 174.522Z" fill="#2E3A5B"/>
<path d="M483.678 182.096C482.201 184.278 479.94 185.875 477.18 186.686C474.421 187.497 471.287 187.485 468.176 186.652C465.065 185.819 462.116 184.201 459.702 182.005C457.287 179.808 455.517 177.13 454.613 174.311C453.71 171.491 453.714 168.656 454.626 166.164C455.538 163.672 457.316 161.635 459.736 160.311C462.156 158.987 465.108 158.434 468.22 158.724C471.332 159.014 474.464 160.133 477.219 161.939C480.913 164.36 483.668 167.844 484.88 171.624C486.091 175.404 485.659 179.171 483.678 182.096Z" fill="#2E3A5B"/>
<path d="M475.553 192.36C473.154 192.108 470.749 191.219 468.643 189.805C466.537 188.392 464.825 186.518 463.722 184.42C462.619 182.322 462.176 180.095 462.448 178.02C462.72 175.944 463.695 174.115 465.25 172.762C466.806 171.409 468.871 170.593 471.185 170.418C473.5 170.244 475.959 170.717 478.252 171.78C480.545 172.842 482.569 174.445 484.068 176.387C485.567 178.328 486.474 180.521 486.673 182.687C486.94 185.591 485.919 188.241 483.834 190.055C481.749 191.869 478.77 192.699 475.553 192.36Z" fill="#2E3A5B"/>
<path d="M477.57 198.471C476.573 198.366 475.574 197.996 474.699 197.409C473.824 196.822 473.112 196.043 472.654 195.171C472.196 194.3 472.012 193.374 472.125 192.512C472.238 191.65 472.644 190.889 473.29 190.327C473.936 189.765 474.794 189.426 475.756 189.354C476.717 189.281 477.739 189.478 478.692 189.919C479.645 190.361 480.486 191.027 481.109 191.833C481.732 192.64 482.109 193.551 482.192 194.451C482.302 195.657 481.877 196.758 481.011 197.511C480.144 198.265 478.907 198.609 477.571 198.468" fill="#2E3A5B"/>
<path d="M470.269 207.841C472.07 209.625 478.504 212.556 482.47 208.458C486.436 204.359 479.205 199.491 474.553 202.528C469.901 205.566 470.269 207.841 470.269 207.841Z" fill="#F4C5BE"/>
<path d="M444.694 334.11C450.044 328.31 471.153 304.357 480.743 277.643C477.862 273.946 474.633 270.425 471.098 267.127C455.03 294.154 446.327 318.965 444.694 334.11Z" fill="#0D71BA"/>
<path d="M471.305 373.766C472.903 376.12 473.958 377.308 474.763 376.992C475.628 376.652 474.992 374.567 472.502 368.047C471.675 365.878 470.82 363.637 470.82 363.168C470.822 361.846 473.639 356.344 474.722 354.337L474.899 354.009L466.001 348.769L462.732 357.053C462.517 357.597 462.367 357.979 462.273 358.252C456.419 357.06 453.412 356.939 453.327 357.888C453.226 359.008 457.044 360.816 460.457 362.202C459.99 363.404 459.303 366.101 459.267 366.245C458.709 368.442 458.084 371.439 458.266 373.244C458.295 373.538 458.387 374.434 459.128 374.645C460.284 374.97 461.882 372.517 463.019 370.398C462.207 375.656 462.085 378.762 462.644 379.86C462.702 379.978 462.781 380.09 462.876 380.191C462.96 380.28 463.063 380.353 463.176 380.403C463.29 380.454 463.409 380.481 463.525 380.481C464.774 380.484 466.249 376.469 467.007 373.861C468.222 380.323 469.335 381.259 470.189 381.311C471.481 381.384 471.622 379.133 471.307 373.77" fill="#F4C5BE"/>
<path d="M472.258 359.198L464.532 353.523L463.772 355.441L471.156 362.134C471.429 361.113 471.798 360.131 472.26 359.196" fill="#EC9193"/>
<path d="M468.176 233.693C471.339 232.831 475 233.179 478.409 234.666C481.818 236.152 484.715 238.664 486.507 241.686C496.544 258.558 513.289 293.07 513.411 308.334C513.517 321.759 479.701 356.237 478.524 357.342C477.778 358.042 473.174 355.587 469.896 353.693C468.946 353.143 468.177 352.345 467.722 351.436C467.267 350.528 467.154 349.566 467.404 348.717C469.919 340.143 477.509 315.269 483.995 304.385C484.398 303.71 484.523 302.892 484.353 302.049C484.183 301.205 483.727 300.379 483.049 299.686C477.171 293.679 462.016 275.677 457.489 255.375C454.837 243.481 459.499 236.087 468.176 233.693Z" fill="#0D71BA"/>
<path d="M307.792 457.779C309.309 458.816 310.15 460.592 310.441 462.096C310.565 462.737 311.618 462.629 311.494 461.993C311.152 460.227 310.074 458.211 308.318 457.011C308.189 456.926 308.038 456.885 307.898 456.897C307.758 456.909 307.64 456.973 307.57 457.074C307.5 457.176 307.484 457.308 307.526 457.44C307.568 457.572 307.663 457.694 307.792 457.779Z" fill="#2E3A5B"/>
<path d="M304.003 460.023C305.154 461.038 305.921 462.338 306.151 463.667C306.282 464.31 307.338 464.203 307.207 463.564C306.929 462.062 306.058 460.596 304.762 459.445C304.204 458.961 303.442 459.536 304.003 460.023Z" fill="#2E3A5B"/>
<path d="M300.104 462.407C300.659 462.962 301.062 463.616 301.269 464.298C301.443 464.941 302.497 464.837 302.322 464.195C302.06 463.342 301.555 462.524 300.861 461.83C300.754 461.726 300.614 461.658 300.471 461.638C300.328 461.618 300.193 461.649 300.095 461.724C299.997 461.799 299.943 461.912 299.945 462.04C299.946 462.167 300.004 462.299 300.104 462.407Z" fill="#2E3A5B"/>
<path d="M375.681 441.619C377.655 446.475 371.295 445.1 369.126 444.437C367.728 444.011 366.363 443.423 364.963 443.008C363.194 442.484 361.39 442.099 359.72 442.466C355.837 443.321 354.88 447.181 354.251 450.422C354.135 451.021 355.209 451.438 355.327 450.835C356.008 447.333 357.106 443.17 361.916 443.389C365.01 443.531 368.018 445.38 371.107 445.945C374.536 446.573 378.23 445.19 376.736 441.516C376.479 440.886 375.425 440.984 375.681 441.619Z" fill="#2E3A5B"/>
<path d="M340.807 293.834C340.807 293.834 335.716 273.722 341.787 258.073C341.787 258.073 318.441 248.303 310.169 227.893C310.169 227.893 305.784 238.047 306.302 244.274C306.302 244.274 286.788 249.148 306.094 269.565C306.094 269.565 318.028 281.223 340.809 293.834" fill="#F0F3FA"/>
<path d="M313.139 236.666L312.059 235.595C311.721 235.261 301.095 251.414 302.67 259.26L303.484 260.055C305.141 251.639 308.398 243.751 313.142 236.666" fill="#E1E6ED"/>
<path d="M317.635 243.685L316.442 242.667C316.069 242.35 306.887 259.514 309.232 267.398L310.132 268.154C310.995 259.471 313.525 251.219 317.635 243.685Z" fill="#E1E6ED"/>
<path d="M315.236 240.547L314.141 239.472C313.799 239.137 304.185 255.211 305.781 263.078L306.839 264.167C306.839 264.167 307.181 252.569 315.237 240.546" fill="#E1E6ED"/>
<path d="M329.232 255.195L328.021 254.227C327.642 253.924 321.008 271.299 323.763 279.107L324.942 280.094C324.942 280.094 323.446 268.285 329.232 255.195Z" fill="#E1E6ED"/>
<path d="M325.73 252.898L324.526 251.917C324.149 251.611 317.159 268.871 319.804 276.696L320.975 277.697C320.975 277.697 319.671 265.894 325.73 252.898Z" fill="#E1E6ED"/>
<path d="M327.865 275.605L326.771 274.654C326.429 274.357 326.044 278.432 326.847 281.619L328.396 282.747C328.396 282.747 327.561 278.019 327.865 275.605Z" fill="#E1E6ED"/>
<mask id="mask7_53_1888" style="mask-type:luminance" maskUnits="userSpaceOnUse" x="296" y="213" width="23" height="45">
<path d="M307.517 213.316L318.915 217.513L307.675 257.165L296.277 252.968L307.517 213.316Z" fill="white"/>
</mask>
<g mask="url(#mask7_53_1888)">
<path d="M310.84 245.997C310.84 245.997 314.191 222.071 317.532 217.004C317.532 217.004 305.24 214.962 301.914 233.846C298.674 252.242 300.049 254.355 300.049 254.355C300.049 254.355 303.131 247.312 310.84 245.997Z" fill="#E4E6EA"/>
</g>
<mask id="mask8_53_1888" style="mask-type:luminance" maskUnits="userSpaceOnUse" x="471" y="229" width="89" height="70">
<path d="M481.989 229.299L559.372 259.269L548.781 298.563L471.399 268.593L481.989 229.299Z" fill="white"/>
</mask>
<g mask="url(#mask8_53_1888)">
<path d="M477.586 245.638C477.586 245.638 512.277 255.312 538.641 251.24C538.641 251.24 547.989 277.303 552.959 283.064C552.959 283.064 534.403 288.811 498.538 279.104C498.538 279.104 482.965 250.818 477.586 245.638" fill="#F0F3FA"/>
</g>
<path d="M503.864 255.09C506.362 255.404 510.88 255.624 511.626 255.636C512.371 255.647 525.4 280.166 525.593 280.989C525.786 281.811 514.952 279.242 514.952 279.242L503.864 255.09Z" fill="#E1E6ED"/>
<path d="M498.966 255.675L500.293 255.88L511.805 280.219L510.228 279.61L498.966 255.675Z" fill="#E1E6ED"/>
<path d="M494.504 255.397L495.832 255.602L507.343 279.942L505.767 279.331L494.504 255.397Z" fill="#E1E6ED"/>
<path d="M525.174 254.051C525.905 254.059 526.627 254.025 527.337 253.952C528.14 253.841 530.581 259.907 530.581 259.907L528.22 260.115L525.174 254.051Z" fill="#E1E6ED"/>
<path d="M528.876 253.273C528.876 253.273 529.098 253.419 529.904 253.307C530.711 253.194 533.161 259.288 533.161 259.288L531.933 259.366L528.876 253.273Z" fill="#E1E6ED"/>
<path d="M410.051 172.861L425.349 176.173L435.177 178.3C437.965 178.904 442.275 179.459 442.136 182.819C442.106 183.518 443.447 183.691 443.476 182.993C443.703 177.525 433.232 176.786 429.013 175.872L409.991 171.755C409.131 171.569 409.193 172.676 410.048 172.86" fill="#D2D5D8"/>
<path d="M414.098 179.158C412.288 178.733 410.174 178.372 410.01 176.195C410.004 175.265 410.066 174.347 410.195 173.449C409.971 173.627 409.747 173.804 409.522 173.98L417.647 175.89C417.403 175.647 417.158 175.405 416.914 175.164C416.777 176.997 417.039 179.661 414.096 179.16C413.191 179.006 413.252 180.261 414.156 180.415C418.045 181.077 418.133 177.922 418.322 175.362C418.31 175.197 418.228 175.028 418.091 174.893C417.955 174.757 417.775 174.665 417.59 174.636L409.462 172.724C409.277 172.701 409.103 172.744 408.978 172.842C408.853 172.941 408.785 173.088 408.789 173.253C408.68 174.729 408.242 176.381 409.221 177.894C410.361 179.657 412.296 179.977 414.156 180.414C415.057 180.626 414.993 179.371 414.096 179.16" fill="#D2D5D8"/>
<path d="M425.522 180.985C423.712 180.56 421.599 180.199 421.434 178.021C421.428 177.091 421.49 176.174 421.619 175.275C421.395 175.453 421.171 175.63 420.946 175.806L429.07 177.717L428.338 176.99C428.2 178.825 428.463 181.488 425.52 180.986C424.614 180.831 424.675 182.087 425.58 182.241C429.469 182.903 429.558 179.748 429.746 177.189C429.734 177.023 429.651 176.855 429.515 176.72C429.378 176.584 429.199 176.492 429.013 176.463L420.889 174.552C420.703 174.528 420.529 174.57 420.403 174.668C420.277 174.767 420.209 174.914 420.213 175.079C420.104 176.557 419.666 178.208 420.645 179.72C421.785 181.483 423.72 181.803 425.58 182.241C426.481 182.453 426.417 181.197 425.52 180.986" fill="#D2D5D8"/>
<defs>
<filter id="filter0_d_53_1888" x="124.894" y="109.734" width="545.55" height="106.65" filterUnits="userSpaceOnUse" color-interpolation-filters="sRGB">
<feFlood flood-opacity="0" result="BackgroundImageFix"/>
<feColorMatrix in="SourceAlpha" type="matrix" values="0 0 0 0 0 0 0 0 0 0 0 0 0 0 0 0 0 0 127 0" result="hardAlpha"/>
<feOffset dy="29"/>
<feGaussianBlur stdDeviation="18"/>
<feColorMatrix type="matrix" values="0 0 0 0 0.490196 0 0 0 0 0.541176 0 0 0 0 0.623529 0 0 0 0.129 0"/>
<feBlend mode="normal" in2="BackgroundImageFix" result="effect1_dropShadow_53_1888"/>
<feBlend mode="normal" in="SourceGraphic" in2="effect1_dropShadow_53_1888" result="shape"/>
</filter>
<filter id="filter1_d_53_1888" x="125.718" y="125.959" width="543.9" height="443.8" filterUnits="userSpaceOnUse" color-interpolation-filters="sRGB">
<feFlood flood-opacity="0" result="BackgroundImageFix"/>
<feColorMatrix in="SourceAlpha" type="matrix" values="0 0 0 0 0 0 0 0 0 0 0 0 0 0 0 0 0 0 127 0" result="hardAlpha"/>
<feOffset dy="29"/>
<feGaussianBlur stdDeviation="18"/>
<feColorMatrix type="matrix" values="0 0 0 0 0.490196 0 0 0 0 0.541176 0 0 0 0 0.623529 0 0 0 0.129 0"/>
<feBlend mode="normal" in2="BackgroundImageFix" result="effect1_dropShadow_53_1888"/>
<feBlend mode="normal" in="SourceGraphic" in2="effect1_dropShadow_53_1888" result="shape"/>
</filter>
<filter id="filter2_d_53_1888" x="586.294" y="268.484" width="121.325" height="146.119" filterUnits="userSpaceOnUse" color-interpolation-filters="sRGB">
<feFlood flood-opacity="0" result="BackgroundImageFix"/>
<feColorMatrix in="SourceAlpha" type="matrix" values="0 0 0 0 0 0 0 0 0 0 0 0 0 0 0 0 0 0 127 0" result="hardAlpha"/>
<feOffset dy="14"/>
<feGaussianBlur stdDeviation="9.5"/>
<feColorMatrix type="matrix" values="0 0 0 0 0.490196 0 0 0 0 0.541176 0 0 0 0 0.623529 0 0 0 0.098 0"/>
<feBlend mode="normal" in2="BackgroundImageFix" result="effect1_dropShadow_53_1888"/>
<feBlend mode="normal" in="SourceGraphic" in2="effect1_dropShadow_53_1888" result="shape"/>
</filter>
<filter id="filter3_d_53_1888" x="114.59" y="344.431" width="84.1631" height="101.792" filterUnits="userSpaceOnUse" color-interpolation-filters="sRGB">
<feFlood flood-opacity="0" result="BackgroundImageFix"/>
<feColorMatrix in="SourceAlpha" type="matrix" values="0 0 0 0 0 0 0 0 0 0 0 0 0 0 0 0 0 0 127 0" result="hardAlpha"/>
<feOffset dy="10"/>
<feGaussianBlur stdDeviation="6.5"/>
<feColorMatrix type="matrix" values="0 0 0 0 0.490196 0 0 0 0 0.541176 0 0 0 0 0.623529 0 0 0 0.098 0"/>
<feBlend mode="normal" in2="BackgroundImageFix" result="effect1_dropShadow_53_1888"/>
<feBlend mode="normal" in="SourceGraphic" in2="effect1_dropShadow_53_1888" result="shape"/>
</filter>
<linearGradient id="paint0_linear_53_1888" x1="333.932" y1="412.314" x2="395.247" y2="335.586" gradientUnits="userSpaceOnUse">
<stop stop-color="#2D3A5B"/>
<stop offset="1" stop-color="#758CC6"/>
</linearGradient>
<linearGradient id="paint1_linear_53_1888" x1="411.038" y1="335.137" x2="309.52" y2="354.286" gradientUnits="userSpaceOnUse">
<stop stop-color="#2D3A5B"/>
<stop offset="1" stop-color="#38466A"/>
</linearGradient>
</defs>
</svg>
