<svg width="20" height="16" viewBox="0 0 20 16" fill="none" xmlns="http://www.w3.org/2000/svg">
<path d="M3.79004 0.488281H16.79C17.5857 0.488281 18.3488 0.804352 18.9114 1.36696C19.474 1.92957 19.79 2.69263 19.79 3.48828V12.4883C19.79 13.2839 19.474 14.047 18.9114 14.6096C18.3488 15.1722 17.5857 15.4883 16.79 15.4883H3.79004C2.99439 15.4883 2.23133 15.1722 1.66872 14.6096C1.10611 14.047 0.790039 13.2839 0.790039 12.4883V3.48828C0.790039 2.69263 1.10611 1.92957 1.66872 1.36696C2.23133 0.804352 2.99439 0.488281 3.79004 0.488281ZM3.79004 1.48828C3.29004 1.48828 2.85004 1.65828 2.51004 1.95828L10.29 6.98828L18.07 1.95828C17.73 1.65828 17.29 1.48828 16.79 1.48828H3.79004ZM10.29 8.19828L1.92004 2.76828C1.84004 2.98828 1.79004 3.23828 1.79004 3.48828V12.4883C1.79004 13.0187 2.00075 13.5274 2.37583 13.9025C2.7509 14.2776 3.25961 14.4883 3.79004 14.4883H16.79C17.3205 14.4883 17.8292 14.2776 18.2043 13.9025C18.5793 13.5274 18.79 13.0187 18.79 12.4883V3.48828C18.79 3.23828 18.74 2.98828 18.66 2.76828L10.29 8.19828Z" fill="#E4E4E4"/>
</svg>
