<svg width="32" height="32" viewBox="0 0 32 32" fill="none" xmlns="http://www.w3.org/2000/svg">
<path fill-rule="evenodd" clip-rule="evenodd" d="M12.5641 7.71675C13.453 7.67647 13.7366 7.66675 15.9998 7.66675C18.263 7.66675 18.5467 7.67647 19.4356 7.71675C20.7905 7.77855 21.9797 8.1105 22.9346 9.06536C23.8898 10.0206 24.2214 11.2102 24.2832 12.5643C24.3235 13.4532 24.3332 13.7369 24.3332 16.0001C24.3332 18.2633 24.3235 18.547 24.2832 19.4358C24.2214 20.7907 23.8894 21.9799 22.9346 22.9348C21.9794 23.89 20.7894 24.2216 19.4356 24.2834C18.5467 24.3237 18.263 24.3334 15.9998 24.3334C13.7366 24.3334 13.453 24.3237 12.5641 24.2834C11.2092 24.2216 10.02 23.8897 9.06512 22.9348C8.10991 21.9796 7.77831 20.79 7.7165 19.4358C7.67623 18.547 7.6665 18.2633 7.6665 16.0001C7.6665 13.7369 7.67623 13.4532 7.7165 12.5643C7.77831 11.2095 8.11025 10.0202 9.06512 9.06536C10.0203 8.11015 11.2099 7.77855 12.5641 7.71675ZM15.9998 10.4445C14.4912 10.4445 14.3019 10.4508 13.7092 10.4779C12.8064 10.5192 12.0134 10.7404 11.3766 11.3768C10.7401 12.0133 10.5189 12.8063 10.4776 13.7095C10.4505 14.3022 10.4443 14.4914 10.4443 16.0001C10.4443 17.5088 10.4505 17.698 10.4776 18.2907C10.5189 19.1935 10.7401 19.9865 11.3766 20.6233C12.013 21.2598 12.8061 21.481 13.7092 21.5223C14.3019 21.5494 14.4912 21.5556 15.9998 21.5556C17.5085 21.5556 17.6978 21.5494 18.2905 21.5223C19.1932 21.481 19.9863 21.2598 20.6231 20.6233C21.2596 19.9869 21.4807 19.1938 21.5221 18.2907C21.5491 17.698 21.5554 17.5088 21.5554 16.0001C21.5554 14.4914 21.5491 14.3022 21.5221 13.7095C21.4807 12.8067 21.2596 12.0136 20.6231 11.3768C19.9866 10.7404 19.1936 10.5192 18.2905 10.4779C17.6978 10.4508 17.5085 10.4445 15.9998 10.4445ZM15.9998 11.4456C17.4832 11.4456 17.6589 11.4511 18.2446 11.4779C18.8769 11.5067 19.4637 11.6334 19.9151 12.0848C20.3665 12.5362 20.4932 13.123 20.5221 13.7553C20.5488 14.3411 20.5544 14.5167 20.5544 16.0001C20.5544 17.4834 20.5488 17.6591 20.5221 18.2449C20.4932 18.8772 20.3665 19.464 19.9151 19.9154C19.4637 20.3667 18.8769 20.4935 18.2446 20.5223C17.6589 20.549 17.4832 20.5546 15.9998 20.5546C14.5165 20.5546 14.3408 20.549 13.755 20.5223C13.1228 20.4935 12.5359 20.3667 12.0846 19.9154C11.6332 19.464 11.5064 18.8772 11.4776 18.2449C11.4509 17.6591 11.4453 17.4834 11.4453 16.0001C11.4453 14.5167 11.4509 14.3411 11.4776 13.7553C11.5064 13.123 11.6332 12.5362 12.0846 12.0848C12.5359 11.6334 13.1228 11.5067 13.755 11.4779C14.3408 11.4511 14.5165 11.4456 15.9998 11.4456ZM13.1471 16.0001C13.1471 14.4247 14.4241 13.1473 15.9998 13.1473C17.5755 13.1473 18.8526 14.4247 18.8526 16.0001C18.8526 17.5754 17.5752 18.8529 15.9998 18.8529C14.4245 18.8529 13.1471 17.5754 13.1471 16.0001ZM14.1481 16.0001C14.1481 17.0227 14.9769 17.8518 15.9998 17.8518C17.0228 17.8518 17.8516 17.023 17.8516 16.0001C17.8516 14.9775 17.0228 14.1483 15.9998 14.1483C14.9773 14.1483 14.1481 14.9772 14.1481 16.0001ZM18.9655 13.7011C19.3337 13.7011 19.6321 13.4026 19.6321 13.0345C19.6321 12.6663 19.3337 12.3678 18.9655 12.3678C18.5973 12.3678 18.2988 12.6663 18.2988 13.0345C18.2988 13.4026 18.5973 13.7011 18.9655 13.7011Z" fill="#0D71BA"/>
</svg>
