<svg width="32" height="32" viewBox="0 0 32 32" fill="none" xmlns="http://www.w3.org/2000/svg">
<path d="M18.625 13C17.335 12.9956 16.0963 13.5044 15.1818 14.4142C14.2673 15.3239 13.7522 16.5601 13.75 17.85V22.75C13.75 22.9489 13.829 23.1397 13.9697 23.2804C14.1103 23.421 14.3011 23.5 14.5 23.5H16.25C16.6642 23.5 17 23.1642 17 22.75V17.85C16.9997 17.3906 17.1948 16.9527 17.5367 16.6458C17.8786 16.3389 18.3349 16.192 18.7917 16.2417C19.63 16.3473 20.2566 17.0635 20.25 17.9084V22.75C20.25 23.1642 20.5858 23.5 21 23.5H22.75C23.1642 23.5 23.5 23.1642 23.5 22.75V17.85C23.4978 16.5601 22.9827 15.3239 22.0682 14.4142C21.1537 13.5044 19.915 12.9956 18.625 13V13Z" fill="#0D71BA"/>
<rect x="8.5" y="13.75" width="3.75" height="9.75" rx="0.9" fill="#0D71BA"/>
<circle cx="10.375" cy="10.375" r="1.875" fill="#0D71BA"/>
</svg>
