<svg width="200" height="41" viewBox="0 0 200 41" fill="none" xmlns="http://www.w3.org/2000/svg">
<path d="M166.478 3.09277H160.278V30.2911H166.478V3.09277Z" fill="#0D71BA"/>
<path d="M169.723 3.09277V8.84302H180.064V30.2937H186.264V8.84302H196.605V3.09277H169.723Z" fill="#0D71BA"/>
<path d="M180.064 8.84302V30.2937H186.264V8.84302" fill="#0D71BA"/>
<path d="M180.064 8.84302V30.2937H186.264V8.84302" fill="#0D71BA"/>
<path d="M180.064 8.84302V30.2937H186.264V8.84302" fill="#0D71BA"/>
<path d="M9.59523 3.09277H3.39551V30.2911H9.59523V3.09277Z" fill="#A0BAD7"/>
<path d="M85.856 8.73041V3.13135H64.5356V30.2938H70.777V20.5307H85.0433V15.1187H70.777V8.73041H85.856Z" fill="#A0BAD7"/>
<path d="M95.3262 3.09277H89.1265V30.2911H95.3262V3.09277Z" fill="#A0BAD7"/>
<path d="M124.427 3.05444V30.2938H120.416L120.311 30.1708L106.133 13.2763V30.2938H99.8975V3.09544H104.893L118.186 18.6934V3.05444H124.427Z" fill="#A0BAD7"/>
<path d="M134.591 24.5819V19.4338H149.995V13.9885H128.394V30.2937H150.563V24.5819H134.591Z" fill="#A0BAD7"/>
<path d="M150.566 3.09546H128.394V8.72783H150.566V3.09546Z" fill="#0D71BA"/>
<path d="M35.0791 22.081L32.5937 23.9055C32.5937 23.9055 32.5937 23.9055 32.5909 23.9106C32.3635 24.0336 25.8974 27.4161 25.4536 21.9196V21.2738L28.9016 18.7703L29.0375 18.842L31.6506 20.2386L35.0791 22.081Z" fill="url(#paint0_linear_28_5849)"/>
<path d="M59.49 13.963V23.0035C59.4761 24.3079 59.1016 25.4917 58.4636 26.4962C57.1266 28.6205 54.6273 29.9505 51.9837 29.9735C50.7244 29.9838 49.4289 29.6968 48.2056 29.051L48.1557 29.0818L40.9241 25.2124L38.1779 23.739L35.1266 22.1092L35.0822 22.0836L31.6509 20.2412L29.0406 18.8472L28.9074 18.7754L25.5177 16.9612L25.4595 16.9304V26.2579C25.1099 26.2989 24.7466 26.322 24.3832 26.3348C22.3776 26.4117 20.1724 26.0862 17.9754 25.0074C17.8062 24.9357 17.6342 24.8588 17.4678 24.7717C17.2986 24.6769 17.1405 24.5795 16.9879 24.477C16.8742 24.4052 16.7549 24.336 16.6411 24.2617C16.3721 24.067 16.1169 23.844 15.8839 23.6032C14.7604 22.4552 14.1113 20.9459 14.1113 19.3469V10.8522L14.1391 10.8368L14.1113 10.824C14.1113 9.55298 14.4608 8.39473 15.0656 7.39792C16.3998 5.19673 18.9685 3.79761 21.6897 3.79761C21.7202 3.79761 21.7479 3.79761 21.7729 3.80273C23.0073 3.80786 24.2722 4.11023 25.4595 4.75086V4.77136L32.6828 8.64073L35.4345 10.1142L36.8076 10.8522L38.5968 11.8105L41.9643 13.6094L44.7771 15.1162L48.1585 16.9304V13.8144C48.1585 9.79642 52.8464 7.28773 56.594 9.29673C58.3859 10.2602 59.49 12.0386 59.49 13.963Z" fill="url(#paint1_linear_28_5849)"/>
<path d="M57.5511 9.94235C57.2626 9.73991 56.9741 9.55797 56.6828 9.38372C56.5303 9.2761 56.3694 9.17872 56.2002 9.08647C56.0337 8.99678 55.8645 8.91991 55.6953 8.85072C48.3472 5.24785 40.9824 10.05 40.9824 10.05C40.9824 10.05 48.1502 6.18572 48.1502 12.6637L48.2085 12.6458C48.1697 12.8892 48.1502 13.1403 48.1502 13.3966V16.9252C49.368 17.5786 50.6606 17.8784 51.92 17.8784C52.7522 17.8784 53.5705 17.7452 54.3444 17.4992C55.3597 17.1788 56.3028 16.6612 57.0934 15.9873C57.1072 15.9745 57.1239 15.9642 57.135 15.9488C60.214 13.0558 57.5511 9.94235 57.5511 9.94235Z" fill="url(#paint2_linear_28_5849)"/>
<path d="M32.6661 23.8132C32.4609 23.9464 29.465 25.8247 25.4539 26.2527C25.1044 26.2937 24.741 26.3167 24.3777 26.3296C22.3721 26.4064 20.1668 26.081 17.9699 25.0022C17.8007 24.9304 17.6287 24.8536 17.4623 24.7664C17.293 24.6716 17.1349 24.5742 16.9824 24.4717C16.8686 24.4 16.7494 24.3308 16.6356 24.2565C16.3666 24.0617 16.1114 23.8388 15.8783 23.5979C15.3097 22.7395 14.0337 20.2487 16.5302 17.9041C16.5441 17.8912 16.5607 17.8784 16.5746 17.8682C17.3624 17.1917 18.3055 16.6766 19.3236 16.3537C20.0975 16.1077 20.9158 15.9771 21.7452 15.9771C23.0046 15.9771 24.2972 16.2717 25.515 16.9252V20.4537C25.515 20.7023 25.4928 20.9381 25.4567 21.1738C25.4567 21.1866 25.4539 21.1943 25.4539 21.2097H25.4567L25.515 21.1892C25.5122 27.5134 32.3416 23.9849 32.6661 23.8132Z" fill="url(#paint3_linear_28_5849)"/>
<path d="M40.9849 10.0475C40.9793 10.0526 40.9793 10.0526 40.9793 10.0526L38.5854 11.8131L41.953 13.6119L44.7658 15.1161L48.1472 12.6664C48.1499 6.29344 41.2207 9.92194 40.9849 10.0475Z" fill="url(#paint4_linear_28_5849)"/>
<path d="M133.307 36.1569C133.307 36.7232 133.076 37.1614 132.619 37.4765C132.161 37.7892 131.615 37.9455 130.979 37.9455C130.486 37.9455 130 37.8686 129.529 37.7097C129.054 37.5534 128.638 37.3254 128.28 37.0281L129.032 36.121C129.615 36.6155 130.255 36.8641 130.952 36.8641C131.612 36.8641 131.942 36.6437 131.942 36.203C131.942 36.1261 131.928 36.0569 131.897 35.9929C131.867 35.9314 131.82 35.875 131.75 35.8289C131.684 35.7827 131.615 35.7417 131.542 35.7059C131.473 35.6725 131.376 35.6367 131.257 35.6034C131.137 35.5726 131.032 35.5444 130.938 35.5214C130.846 35.5009 130.727 35.4727 130.577 35.4394C130.427 35.4086 130.302 35.3804 130.208 35.3574C130.014 35.3087 129.839 35.26 129.692 35.2113C129.545 35.1626 129.387 35.0909 129.226 35.0012C129.068 34.9115 128.935 34.8141 128.835 34.7039C128.732 34.5963 128.649 34.4579 128.577 34.2914C128.511 34.1248 128.477 33.9377 128.477 33.7353C128.477 33.1869 128.699 32.7564 129.149 32.4438C129.598 32.1337 130.133 31.98 130.752 31.98C131.584 31.98 132.361 32.2285 133.082 32.7231L132.422 33.6687C131.861 33.2689 131.315 33.069 130.777 33.069C130.527 33.069 130.308 33.1152 130.122 33.2074C129.936 33.3022 129.839 33.456 129.839 33.6687C129.839 33.8275 129.939 33.9634 130.144 34.0659C130.28 34.1376 130.63 34.2324 131.187 34.3554C131.429 34.4092 131.628 34.4605 131.789 34.504C131.953 34.5476 132.142 34.6168 132.347 34.7116C132.555 34.809 132.724 34.914 132.846 35.0345C132.971 35.1524 133.082 35.3112 133.171 35.5034C133.262 35.693 133.307 35.9134 133.307 36.1569Z" fill="#A0BAD7"/>
<path d="M140.333 32.8205C139.714 32.2567 138.941 31.9749 138.011 31.9749C137.082 31.9749 136.308 32.2567 135.69 32.8205C135.071 33.3817 134.76 34.0966 134.76 34.9602C134.76 35.8237 135.071 36.5361 135.69 37.0999C136.308 37.6636 137.082 37.9455 138.011 37.9455C138.941 37.9455 139.714 37.6636 140.333 37.0999C140.949 36.5361 141.26 35.8237 141.26 34.9602C141.26 34.0966 140.952 33.3817 140.333 32.8205ZM139.359 36.2927C139.018 36.6514 138.569 36.8308 138.011 36.8308C137.451 36.8308 137.002 36.6514 136.663 36.2927C136.322 35.9314 136.153 35.488 136.153 34.9602C136.153 34.4323 136.322 33.989 136.663 33.6277C137.002 33.2664 137.451 33.0895 138.011 33.0895C138.569 33.0895 139.018 33.2664 139.359 33.6277C139.698 33.989 139.867 34.4323 139.867 34.9602C139.867 35.488 139.698 35.9314 139.359 36.2927Z" fill="#A0BAD7"/>
<path d="M147.304 36.7668V37.8456H143.143V32.0723H144.502V36.7668H147.304Z" fill="#A0BAD7"/>
<path d="M154.075 32.0723V35.6931C154.075 36.3593 153.825 36.9 153.332 37.3177C152.838 37.7354 152.197 37.943 151.404 37.943C150.61 37.943 149.97 37.7354 149.476 37.3177C148.982 36.9 148.732 36.3593 148.732 35.6931V32.0723H150.092V35.6931C150.092 36.0288 150.211 36.3004 150.458 36.5131C150.702 36.7232 151.015 36.8308 151.404 36.8308C151.792 36.8308 152.106 36.7258 152.35 36.5131C152.596 36.303 152.716 36.0288 152.716 35.6931V32.0723H154.075Z" fill="#A0BAD7"/>
<path d="M160.624 32.0723V33.1536H158.849V37.8456H157.492V33.1536H155.714V32.0723H160.624Z" fill="#A0BAD7"/>
<path d="M163.687 32.0723H162.33V37.8456H163.687V32.0723Z" fill="#A0BAD7"/>
<path d="M171.143 32.8205C170.525 32.2567 169.751 31.9749 168.821 31.9749C167.892 31.9749 167.118 32.2567 166.5 32.8205C165.881 33.3817 165.57 34.0966 165.57 34.9602C165.57 35.8237 165.881 36.5361 166.5 37.0999C167.118 37.6636 167.892 37.9455 168.821 37.9455C169.751 37.9455 170.525 37.6636 171.143 37.0999C171.762 36.5361 172.072 35.8237 172.072 34.9602C172.072 34.0966 171.762 33.3817 171.143 32.8205ZM170.169 36.2927C169.831 36.6514 169.379 36.8308 168.821 36.8308C168.261 36.8308 167.812 36.6514 167.473 36.2927C167.132 35.9314 166.966 35.488 166.966 34.9602C166.966 34.4323 167.132 33.989 167.473 33.6277C167.812 33.2664 168.261 33.0895 168.821 33.0895C169.379 33.0895 169.831 33.2664 170.169 33.6277C170.511 33.989 170.677 34.4323 170.677 34.9602C170.677 35.488 170.511 35.9314 170.169 36.2927Z" fill="#A0BAD7"/>
<path d="M179.345 32.0723V37.8456H177.989L175.312 34.1018V37.8456H173.956V32.0723H175.312L177.989 35.8084V32.0723H179.345Z" fill="#A0BAD7"/>
<path d="M186.15 36.1569C186.15 36.7232 185.923 37.1614 185.465 37.4765C185.004 37.7892 184.458 37.9455 183.823 37.9455C183.329 37.9455 182.846 37.8686 182.372 37.7097C181.9 37.5534 181.484 37.3254 181.126 37.0281L181.878 36.121C182.461 36.6155 183.101 36.8641 183.795 36.8641C184.455 36.8641 184.788 36.6437 184.788 36.203C184.788 36.1261 184.771 36.0569 184.744 35.9929C184.713 35.9314 184.663 35.875 184.597 35.8289C184.527 35.7827 184.458 35.7417 184.389 35.7059C184.316 35.6725 184.222 35.6367 184.1 35.6034C183.984 35.5726 183.878 35.5444 183.784 35.5214C183.692 35.5009 183.57 35.4727 183.42 35.4394C183.273 35.4086 183.149 35.3804 183.054 35.3574C182.86 35.3087 182.685 35.26 182.536 35.2113C182.389 35.1626 182.233 35.0909 182.072 35.0012C181.911 34.9115 181.778 34.8141 181.678 34.7039C181.579 34.5963 181.493 34.4579 181.423 34.2914C181.354 34.1248 181.321 33.9377 181.321 33.7353C181.321 33.1869 181.545 32.7564 181.995 32.4438C182.444 32.1337 182.977 31.98 183.595 31.98C184.43 31.98 185.204 32.2285 185.925 32.7231L185.265 33.6687C184.708 33.2689 184.161 33.069 183.626 33.069C183.373 33.069 183.157 33.1152 182.968 33.2074C182.782 33.3022 182.688 33.456 182.688 33.6687C182.688 33.8275 182.788 33.9634 182.993 34.0659C183.129 34.1376 183.476 34.2324 184.036 34.3554C184.275 34.4092 184.475 34.4605 184.638 34.504C184.799 34.5476 184.988 34.6168 185.196 34.7116C185.401 34.809 185.57 34.914 185.695 35.0345C185.82 35.1549 185.925 35.3112 186.017 35.5034C186.106 35.693 186.15 35.9134 186.15 36.1569Z" fill="#A0BAD7"/>
<defs>
<linearGradient id="paint0_linear_28_5849" x1="26.5214" y1="24.348" x2="31.7136" y2="20.017" gradientUnits="userSpaceOnUse">
<stop stop-color="#2E368F"/>
<stop offset="1" stop-color="#29AAE2"/>
</linearGradient>
<linearGradient id="paint1_linear_28_5849" x1="14.1912" y1="16.886" x2="59.4112" y2="16.886" gradientUnits="userSpaceOnUse">
<stop stop-color="#29AAE2"/>
<stop offset="0.5" stop-color="#2E368F"/>
<stop offset="1" stop-color="#29AAE2"/>
</linearGradient>
<linearGradient id="paint2_linear_28_5849" x1="49.8007" y1="17.7471" x2="49.8007" y2="7.4813" gradientUnits="userSpaceOnUse">
<stop stop-color="#2E368F"/>
<stop offset="1" stop-color="#29AAE2"/>
</linearGradient>
<linearGradient id="paint3_linear_28_5849" x1="23.8527" y1="17.0249" x2="23.8527" y2="26.1623" gradientUnits="userSpaceOnUse">
<stop stop-color="#2E368F"/>
<stop offset="1" stop-color="#29AAE2"/>
</linearGradient>
<linearGradient id="paint4_linear_28_5849" x1="47.0559" y1="9.55525" x2="42.0165" y2="13.8284" gradientUnits="userSpaceOnUse">
<stop stop-color="#2E368F"/>
<stop offset="1" stop-color="#29AAE2"/>
</linearGradient>
</defs>
</svg>
