<svg width="21" height="21" viewBox="0 0 21 21" fill="none" xmlns="http://www.w3.org/2000/svg">
<g clip-path="url(#clip0_8_1817)">
<path d="M5.08944 15.7428C5.08944 16.2011 5.46444 16.5761 5.92277 16.5761H6.7561V19.4928C6.7561 20.1845 7.31444 20.7428 8.0061 20.7428C8.69777 20.7428 9.2561 20.1845 9.2561 19.4928V16.5761H10.9228V19.4928C10.9228 20.1845 11.4811 20.7428 12.1728 20.7428C12.8644 20.7428 13.4228 20.1845 13.4228 19.4928V16.5761H14.2561C14.7144 16.5761 15.0894 16.2011 15.0894 15.7428V7.40946H5.08944V15.7428ZM3.0061 7.40946C2.31444 7.40946 1.7561 7.9678 1.7561 8.65946V14.4928C1.7561 15.1845 2.31444 15.7428 3.0061 15.7428C3.69777 15.7428 4.2561 15.1845 4.2561 14.4928V8.65946C4.2561 7.9678 3.69777 7.40946 3.0061 7.40946ZM17.1728 7.40946C16.4811 7.40946 15.9228 7.9678 15.9228 8.65946V14.4928C15.9228 15.1845 16.4811 15.7428 17.1728 15.7428C17.8644 15.7428 18.4228 15.1845 18.4228 14.4928V8.65946C18.4228 7.9678 17.8644 7.40946 17.1728 7.40946ZM13.0311 2.5428L14.1144 1.45946C14.2811 1.2928 14.2811 1.03446 14.1144 0.867798C13.9478 0.701131 13.6894 0.701131 13.5228 0.867798L12.2894 2.10113C11.6311 1.7678 10.8811 1.57613 10.0894 1.57613C9.28944 1.57613 8.53944 1.7678 7.87277 2.10113L6.6311 0.867798C6.46444 0.701131 6.2061 0.701131 6.03944 0.867798C5.87277 1.03446 5.87277 1.2928 6.03944 1.45946L7.1311 2.55113C5.89777 3.45946 5.08944 4.9178 5.08944 6.57613H15.0894C15.0894 4.9178 14.2811 3.45113 13.0311 2.5428ZM8.42277 4.90946H7.58944V4.07613H8.42277V4.90946ZM12.5894 4.90946H11.7561V4.07613H12.5894V4.90946Z" fill="#0D71BA"/>
</g>
<defs>
<clipPath id="clip0_8_1817">
<rect width="20" height="20" fill="white" transform="translate(0.0893555 0.742798)"/>
</clipPath>
</defs>
</svg>
