<svg width="20" height="21" viewBox="0 0 20 21" fill="none" xmlns="http://www.w3.org/2000/svg">
<g clip-path="url(#clip0_31_7930)">
<path d="M9.99467 1.5059C12.1172 1.5059 14.3681 3.29367 14.3681 4.62805V7.75148C14.3681 8.95367 13.8681 11.2537 12.5272 12.3096C12.359 12.442 12.2276 12.6153 12.1457 12.813C12.0637 13.0107 12.0339 13.2262 12.059 13.4387C12.1103 13.8715 12.3831 14.2456 12.7787 14.4275L18.2181 17.0068C18.2606 17.0262 18.7394 17.1065 18.7394 17.7753L18.74 18.9953L1.24998 18.9962V17.7278C1.24998 17.2309 1.62279 17.0749 1.77186 17.0062L7.26059 14.4159C7.65434 14.2353 7.92592 13.8628 7.97873 13.4331C8.03186 13.0034 7.85842 12.5768 7.52061 12.3059C6.22217 11.2634 5.61717 8.97182 5.61717 7.75148V4.62805C5.61746 3.32244 7.89092 1.5059 9.99467 1.5059ZM9.99467 0.255859C7.23467 0.255859 4.36719 2.55934 4.36719 4.62807V7.7515C4.36719 9.11619 4.99 11.8774 6.73812 13.2806L1.24906 15.8712C1.24906 15.8712 0 16.4278 0 17.1206V18.9962C0 19.6865 0.559375 20.2456 1.24904 20.2456H18.7403C19.4306 20.2456 19.9897 19.6865 19.9897 18.9962V17.1206C19.9897 16.3862 18.7403 15.8712 18.7403 15.8712L13.3009 13.2918C15.0325 11.929 15.6184 9.2518 15.6184 7.75148V4.62805C15.6184 2.5593 12.7544 0.255879 9.99467 0.255879V0.255859Z" fill="#E4E4E4"/>
</g>
<defs>
<clipPath id="clip0_31_7930">
<rect width="20" height="20" fill="white" transform="translate(0 0.255859)"/>
</clipPath>
</defs>
</svg>
