<svg width="20" height="20" viewBox="0 0 20 20" fill="none" xmlns="http://www.w3.org/2000/svg">
<path d="M14.3523 19.5853C6.7485 19.5853 0.562012 13.3989 0.562012 5.79504C0.564887 4.49076 1.0413 3.2319 1.90266 2.25252C2.76403 1.27313 3.95174 0.639861 5.24497 0.470447C5.57464 0.433894 5.90738 0.503303 6.19495 0.668609C6.48251 0.833915 6.70994 1.08652 6.84426 1.3898L8.76916 5.88123C8.86901 6.11436 8.90904 6.36874 8.88563 6.62128C8.86222 6.87381 8.7761 7.11649 8.63509 7.32729L7.04537 9.75975C7.76523 11.2207 8.95135 12.4 10.4163 13.1116L12.8201 11.5123C13.0306 11.3703 13.2739 11.2844 13.527 11.2626C13.78 11.2408 14.0344 11.2839 14.2661 11.3878L18.7576 13.3031C19.0608 13.4374 19.3134 13.6648 19.4787 13.9524C19.6441 14.24 19.7135 14.5727 19.6769 14.9024C19.5075 16.1956 18.8742 17.3833 17.8948 18.2447C16.9155 19.1061 15.6566 19.5825 14.3523 19.5853ZM5.4365 1.99313C4.51231 2.11193 3.66311 2.56352 3.0479 3.26335C2.43269 3.96317 2.09365 4.86324 2.09427 5.79504C2.0968 9.0453 3.38909 12.1617 5.68737 14.46C7.98565 16.7583 11.1021 18.0506 14.3523 18.0531C15.2841 18.0537 16.1842 17.7147 16.884 17.0995C17.5838 16.4842 18.0354 15.635 18.1542 14.7109L13.6628 12.7955L11.2687 14.3948C11.0484 14.5405 10.7942 14.6267 10.5307 14.6451C10.2673 14.6636 10.0036 14.6137 9.76513 14.5002C7.98095 13.6371 6.53775 12.2007 5.66634 10.4205C5.55145 10.1829 5.49989 9.91961 5.51667 9.65619C5.53345 9.39277 5.61799 9.13815 5.76211 8.91701L7.3614 6.48455L5.4365 1.99313Z" fill="#E4E4E4"/>
</svg>
