<svg width="32" height="32" viewBox="0 0 32 32" fill="none" xmlns="http://www.w3.org/2000/svg">
<path d="M12.7333 22.6667C15.2228 22.75 17.6402 21.823 19.4357 20.0965C21.2312 18.37 22.2522 15.9909 22.2666 13.5C22.8313 12.8012 23.2506 11.9965 23.4999 11.1333C23.5379 10.994 23.4907 10.8454 23.3791 10.7536C23.2676 10.6619 23.1126 10.6442 22.9833 10.7083C22.3775 10.9999 21.6532 10.8725 21.1833 10.3917C20.5922 9.74444 19.7643 9.36413 18.8882 9.33744C18.0121 9.31075 17.1626 9.63995 16.5333 10.25C15.6657 11.0902 15.302 12.3236 15.5749 13.5C12.7833 13.6667 10.8666 12.3417 9.33326 10.525C9.23914 10.4184 9.09089 10.3776 8.95545 10.4209C8.82001 10.4642 8.72302 10.5836 8.70826 10.725C8.11003 14.0435 9.63899 17.3839 12.5416 19.1C11.5913 20.1899 10.2568 20.8705 8.8166 21C8.65841 21.0262 8.53441 21.1501 8.50805 21.3083C8.48169 21.4665 8.55881 21.6239 8.69993 21.7C9.95286 22.3261 11.3326 22.6568 12.7333 22.6667Z" fill="#0D71BA"/>
</svg>
